<?xml version="1.0" encoding="UTF-8" standalone="no"?>
<!DOCTYPE svg PUBLIC "-//W3C//DTD SVG 1.1//EN"
 "http://www.w3.org/Graphics/SVG/1.1/DTD/svg11.dtd">
<!-- Generated by graphviz version 2.40.1 (20161225.0304)
 -->
<!-- Title: fsm Pages: 1 -->
<svg width="482pt" height="1021pt"
 viewBox="0.00 0.00 482.04 1020.80" xmlns="http://www.w3.org/2000/svg" xmlns:xlink="http://www.w3.org/1999/xlink">
<g id="graph0" class="graph" transform="scale(1 1) rotate(0) translate(4 1016.8)">
<title>fsm</title>
<polygon fill="#ffffff" stroke="transparent" points="-4,4 -4,-1016.8 478.0404,-1016.8 478.0404,4 -4,4"/>
<!-- window -->
<g id="node1" class="node">
<title>window</title>
<ellipse fill="none" stroke="#000000" cx="365.506" cy="-994.8" rx="42.2971" ry="18"/>
<text text-anchor="middle" x="365.506" y="-990.6" font-family="Times,serif" font-size="14.00" fill="#000000">window</text>
</g>
<!-- loading -->
<g id="node2" class="node">
<title>loading</title>
<ellipse fill="none" stroke="#000000" cx="365.506" cy="-906" rx="40.0089" ry="18"/>
<text text-anchor="middle" x="365.506" y="-901.8" font-family="Times,serif" font-size="14.00" fill="#000000">loading</text>
</g>
<!-- window&#45;&gt;loading -->
<g id="edge1" class="edge">
<title>window&#45;&gt;loading</title>
<path fill="none" stroke="#000000" d="M365.506,-976.4006C365.506,-964.2949 365.506,-948.2076 365.506,-934.4674"/>
<polygon fill="#000000" stroke="#000000" points="369.0061,-934.072 365.506,-924.072 362.0061,-934.0721 369.0061,-934.072"/>
<text text-anchor="middle" x="378.3419" y="-946.2" font-family="Times,serif" font-size="14.00" fill="#000000"> init </text>
</g>
<!-- initga -->
<g id="node3" class="node">
<title>initga</title>
<ellipse fill="none" stroke="#000000" cx="365.506" cy="-817.2" rx="33.0624" ry="18"/>
<text text-anchor="middle" x="365.506" y="-813" font-family="Times,serif" font-size="14.00" fill="#000000">initga</text>
</g>
<!-- loading&#45;&gt;initga -->
<g id="edge2" class="edge">
<title>loading&#45;&gt;initga</title>
<path fill="none" stroke="#000000" d="M365.506,-887.6006C365.506,-875.4949 365.506,-859.4076 365.506,-845.6674"/>
<polygon fill="#000000" stroke="#000000" points="369.0061,-845.272 365.506,-835.272 362.0061,-845.2721 369.0061,-845.272"/>
<text text-anchor="middle" x="387.6659" y="-857.4" font-family="Times,serif" font-size="14.00" fill="#000000"> loaded </text>
</g>
<!-- getid -->
<g id="node4" class="node">
<title>getid</title>
<ellipse fill="none" stroke="#000000" cx="365.506" cy="-728.4" rx="30.1958" ry="18"/>
<text text-anchor="middle" x="365.506" y="-724.2" font-family="Times,serif" font-size="14.00" fill="#000000">getid</text>
</g>
<!-- initga&#45;&gt;getid -->
<g id="edge3" class="edge">
<title>initga&#45;&gt;getid</title>
<path fill="none" stroke="#000000" d="M365.506,-798.8006C365.506,-786.6949 365.506,-770.6076 365.506,-756.8674"/>
<polygon fill="#000000" stroke="#000000" points="369.0061,-756.472 365.506,-746.472 362.0061,-756.4721 369.0061,-756.472"/>
<text text-anchor="middle" x="385.3419" y="-768.6" font-family="Times,serif" font-size="14.00" fill="#000000"> initok </text>
</g>
<!-- getid&#45;&gt;getid -->
<g id="edge19" class="edge">
<title>getid&#45;&gt;getid</title>
<path fill="none" stroke="#000000" d="M392.8421,-736.5775C404.2139,-737.1415 413.8535,-734.4156 413.8535,-728.4 413.8535,-724.3583 409.502,-721.8016 403.1974,-720.73"/>
<polygon fill="#000000" stroke="#000000" points="403.0015,-717.2162 392.8421,-720.2225 402.6588,-724.2079 403.0015,-717.2162"/>
<text text-anchor="middle" x="441.857" y="-724.2" font-family="Times,serif" font-size="14.00" fill="#000000"> luminsty </text>
</g>
<!-- hasid -->
<g id="node5" class="node">
<title>hasid</title>
<ellipse fill="none" stroke="#000000" cx="365.506" cy="-639.6" rx="31.339" ry="18"/>
<text text-anchor="middle" x="365.506" y="-635.4" font-family="Times,serif" font-size="14.00" fill="#000000">hasid</text>
</g>
<!-- getid&#45;&gt;hasid -->
<g id="edge4" class="edge">
<title>getid&#45;&gt;hasid</title>
<path fill="none" stroke="#000000" d="M365.506,-710.0006C365.506,-697.8949 365.506,-681.8076 365.506,-668.0674"/>
<polygon fill="#000000" stroke="#000000" points="369.0061,-667.672 365.506,-657.672 362.0061,-667.6721 369.0061,-667.672"/>
<text text-anchor="middle" x="382.2262" y="-679.8" font-family="Times,serif" font-size="14.00" fill="#000000"> setid </text>
</g>
<!-- hasid&#45;&gt;hasid -->
<g id="edge20" class="edge">
<title>hasid&#45;&gt;hasid</title>
<path fill="none" stroke="#000000" d="M393.9453,-647.7996C405.3516,-648.2629 414.9254,-645.5297 414.9254,-639.6 414.9254,-635.616 410.6036,-633.0749 404.308,-631.9768"/>
<polygon fill="#000000" stroke="#000000" points="404.1243,-628.4612 393.9453,-631.4004 403.7354,-635.4504 404.1243,-628.4612"/>
<text text-anchor="middle" x="442.9289" y="-635.4" font-family="Times,serif" font-size="14.00" fill="#000000"> luminsty </text>
</g>
<!-- getalldb -->
<g id="node6" class="node">
<title>getalldb</title>
<ellipse fill="none" stroke="#000000" cx="235.506" cy="-550.8" rx="42.2932" ry="18"/>
<text text-anchor="middle" x="235.506" y="-546.6" font-family="Times,serif" font-size="14.00" fill="#000000">getalldb</text>
</g>
<!-- hasid&#45;&gt;getalldb -->
<g id="edge5" class="edge">
<title>hasid&#45;&gt;getalldb</title>
<path fill="none" stroke="#000000" d="M345.1935,-625.725C324.0781,-611.3016 290.7683,-588.5484 266.3914,-571.8971"/>
<polygon fill="#000000" stroke="#000000" points="268.0854,-568.8157 257.8538,-566.0653 264.137,-574.5959 268.0854,-568.8157"/>
<text text-anchor="middle" x="330.9436" y="-591" font-family="Times,serif" font-size="14.00" fill="#000000"> nocfg </text>
</g>
<!-- getschema -->
<g id="node7" class="node">
<title>getschema</title>
<ellipse fill="none" stroke="#000000" cx="235.506" cy="-373.2" rx="51.5843" ry="18"/>
<text text-anchor="middle" x="235.506" y="-369" font-family="Times,serif" font-size="14.00" fill="#000000">getschema</text>
</g>
<!-- hasid&#45;&gt;getschema -->
<g id="edge6" class="edge">
<title>hasid&#45;&gt;getschema</title>
<path fill="none" stroke="#000000" d="M381.0152,-623.9261C404.8393,-597.8565 445.7696,-543.9097 426.506,-498 401.9875,-439.5668 333.5237,-405.4284 285.6137,-388.0397"/>
<polygon fill="#000000" stroke="#000000" points="286.6203,-384.6838 276.0255,-384.6818 284.3066,-391.2904 286.6203,-384.6838"/>
<text text-anchor="middle" x="452.2732" y="-502.2" font-family="Times,serif" font-size="14.00" fill="#000000"> hascfg </text>
</g>
<!-- getalldb&#45;&gt;getalldb -->
<g id="edge22" class="edge">
<title>getalldb&#45;&gt;getalldb</title>
<path fill="none" stroke="#000000" d="M273.0974,-559.05C285.6279,-559.05 295.6523,-556.3 295.6523,-550.8 295.6523,-546.9328 290.6964,-544.4252 283.3981,-543.2771"/>
<polygon fill="#000000" stroke="#000000" points="283.3191,-539.7629 273.0974,-542.55 282.8261,-546.7455 283.3191,-539.7629"/>
<text text-anchor="middle" x="323.6558" y="-546.6" font-family="Times,serif" font-size="14.00" fill="#000000"> luminsty </text>
</g>
<!-- showmenu -->
<g id="node8" class="node">
<title>showmenu</title>
<ellipse fill="none" stroke="#000000" cx="235.506" cy="-462" rx="52.7527" ry="18"/>
<text text-anchor="middle" x="235.506" y="-457.8" font-family="Times,serif" font-size="14.00" fill="#000000">showmenu</text>
</g>
<!-- getalldb&#45;&gt;showmenu -->
<g id="edge7" class="edge">
<title>getalldb&#45;&gt;showmenu</title>
<path fill="none" stroke="#000000" d="M242.1715,-532.7278C243.9473,-527.0683 245.6177,-520.7465 246.506,-514.8 247.609,-507.4153 247.609,-505.3847 246.506,-498 246.1035,-495.3055 245.5404,-492.5339 244.8797,-489.7819"/>
<polygon fill="#000000" stroke="#000000" points="248.2295,-488.7642 242.1715,-480.0722 241.4869,-490.6449 248.2295,-488.7642"/>
<text text-anchor="middle" x="271.7788" y="-502.2" font-family="Times,serif" font-size="14.00" fill="#000000"> setalldb </text>
</g>
<!-- getschema&#45;&gt;getschema -->
<g id="edge21" class="edge">
<title>getschema&#45;&gt;getschema</title>
<path fill="none" stroke="#000000" d="M281.8158,-381.4178C295.0743,-381.0955 305.2977,-378.3562 305.2977,-373.2 305.2977,-369.4537 299.9008,-366.9832 291.8642,-365.7887"/>
<polygon fill="#000000" stroke="#000000" points="292.0638,-362.2936 281.8158,-364.9822 291.5037,-369.2711 292.0638,-362.2936"/>
<text text-anchor="middle" x="333.3012" y="-369" font-family="Times,serif" font-size="14.00" fill="#000000"> luminsty </text>
</g>
<!-- getdata -->
<g id="node9" class="node">
<title>getdata</title>
<ellipse fill="none" stroke="#000000" cx="214.506" cy="-284.4" rx="38.842" ry="18"/>
<text text-anchor="middle" x="214.506" y="-280.2" font-family="Times,serif" font-size="14.00" fill="#000000">getdata</text>
</g>
<!-- getschema&#45;&gt;getdata -->
<g id="edge10" class="edge">
<title>getschema&#45;&gt;getdata</title>
<path fill="none" stroke="#000000" d="M231.2563,-355.23C228.353,-342.953 224.4472,-326.4372 221.1375,-312.4421"/>
<polygon fill="#000000" stroke="#000000" points="224.4568,-311.2693 218.7493,-302.3433 217.6447,-312.8804 224.4568,-311.2693"/>
<text text-anchor="middle" x="260.7101" y="-324.6" font-family="Times,serif" font-size="14.00" fill="#000000"> ackschema </text>
</g>
<!-- showmenu&#45;&gt;getalldb -->
<g id="edge8" class="edge">
<title>showmenu&#45;&gt;getalldb</title>
<path fill="none" stroke="#000000" d="M213.5817,-478.5745C203.2946,-488.4994 194.3573,-501.6994 199.757,-514.8 201.6303,-519.3451 204.386,-523.6195 207.5503,-527.5252"/>
<polygon fill="#000000" stroke="#000000" points="205.1043,-530.035 214.4675,-534.993 210.2397,-525.2782 205.1043,-530.035"/>
<text text-anchor="middle" x="220.8805" y="-502.2" font-family="Times,serif" font-size="14.00" fill="#000000"> rescan </text>
</g>
<!-- showmenu&#45;&gt;getschema -->
<g id="edge9" class="edge">
<title>showmenu&#45;&gt;getschema</title>
<path fill="none" stroke="#000000" d="M235.506,-443.6006C235.506,-431.4949 235.506,-415.4076 235.506,-401.6674"/>
<polygon fill="#000000" stroke="#000000" points="239.0061,-401.272 235.506,-391.272 232.0061,-401.2721 239.0061,-401.272"/>
<text text-anchor="middle" x="261.5481" y="-413.4" font-family="Times,serif" font-size="14.00" fill="#000000"> selected </text>
</g>
<!-- showmenu&#45;&gt;showmenu -->
<g id="edge26" class="edge">
<title>showmenu&#45;&gt;showmenu</title>
<path fill="none" stroke="#000000" d="M282.8714,-470.2092C296.1722,-469.8497 306.3821,-467.1133 306.3821,-462 306.3821,-458.2849 300.9924,-455.8245 292.9434,-454.6189"/>
<polygon fill="#000000" stroke="#000000" points="293.1246,-451.122 282.8714,-453.7908 292.5509,-458.0985 293.1246,-451.122"/>
<text text-anchor="middle" x="334.3856" y="-457.8" font-family="Times,serif" font-size="14.00" fill="#000000"> luminsty </text>
</g>
<!-- getdata&#45;&gt;getdata -->
<g id="edge23" class="edge">
<title>getdata&#45;&gt;getdata</title>
<path fill="none" stroke="#000000" d="M249.2439,-292.6455C261.4902,-292.7774 271.4269,-290.0289 271.4269,-284.4 271.4269,-280.4422 266.5143,-277.9084 259.3405,-276.7986"/>
<polygon fill="#000000" stroke="#000000" points="259.4465,-273.2984 249.2439,-276.1545 259.0008,-280.2842 259.4465,-273.2984"/>
<text text-anchor="middle" x="299.4304" y="-280.2" font-family="Times,serif" font-size="14.00" fill="#000000"> luminsty </text>
</g>
<!-- waitdata -->
<g id="node11" class="node">
<title>waitdata</title>
<ellipse fill="none" stroke="#000000" cx="179.506" cy="-195.6" rx="43.9964" ry="18"/>
<text text-anchor="middle" x="179.506" y="-191.4" font-family="Times,serif" font-size="14.00" fill="#000000">waitdata</text>
</g>
<!-- getdata&#45;&gt;waitdata -->
<g id="edge12" class="edge">
<title>getdata&#45;&gt;waitdata</title>
<path fill="none" stroke="#000000" d="M207.4232,-266.43C202.5368,-254.0327 195.9469,-237.313 190.3966,-223.2312"/>
<polygon fill="#000000" stroke="#000000" points="193.5014,-221.5633 186.5782,-213.5433 186.9889,-224.1302 193.5014,-221.5633"/>
<text text-anchor="middle" x="230.2185" y="-235.8" font-family="Times,serif" font-size="14.00" fill="#000000"> getlaunch </text>
</g>
<!-- showdata -->
<g id="node10" class="node">
<title>showdata</title>
<ellipse fill="none" stroke="#000000" cx="47.506" cy="-106.8" rx="47.5119" ry="18"/>
<text text-anchor="middle" x="47.506" y="-102.6" font-family="Times,serif" font-size="14.00" fill="#000000">showdata</text>
</g>
<!-- showdata&#45;&gt;getalldb -->
<g id="edge17" class="edge">
<title>showdata&#45;&gt;getalldb</title>
<path fill="none" stroke="#000000" d="M39.9749,-124.8143C33.2671,-142.5095 24.506,-170.4379 24.506,-195.6 24.506,-462 24.506,-462 24.506,-462 24.506,-497.1067 124.9915,-526.049 187.2729,-540.6159"/>
<polygon fill="#000000" stroke="#000000" points="186.7662,-544.0904 197.2955,-542.9136 188.3305,-537.2674 186.7662,-544.0904"/>
<text text-anchor="middle" x="50.5509" y="-324.6" font-family="Times,serif" font-size="14.00" fill="#000000"> chgconf </text>
</g>
<!-- showdata&#45;&gt;getdata -->
<g id="edge11" class="edge">
<title>showdata&#45;&gt;getdata</title>
<path fill="none" stroke="#000000" d="M48.6104,-125.0529C50.8832,-148.0743 57.8326,-187.7653 79.0796,-213.6 102.7747,-242.4114 141.2945,-260.9319 171.2065,-271.7745"/>
<polygon fill="#000000" stroke="#000000" points="170.3919,-275.1963 180.9867,-275.161 172.6823,-268.5816 170.3919,-275.1963"/>
<text text-anchor="middle" x="103.2192" y="-191.4" font-family="Times,serif" font-size="14.00" fill="#000000"> getnew </text>
</g>
<!-- showdata&#45;&gt;showdata -->
<g id="edge27" class="edge">
<title>showdata&#45;&gt;showdata</title>
<path fill="none" stroke="#000000" d="M90.0335,-115.0374C102.9305,-114.831 113.0119,-112.0852 113.0119,-106.8 113.0119,-103.0013 107.8039,-100.5144 100.0856,-99.3394"/>
<polygon fill="#000000" stroke="#000000" points="100.2734,-95.8436 90.0335,-98.5626 99.734,-102.8227 100.2734,-95.8436"/>
<text text-anchor="middle" x="141.0154" y="-102.6" font-family="Times,serif" font-size="14.00" fill="#000000"> luminsty </text>
</g>
<!-- halt -->
<g id="node13" class="node">
<title>halt</title>
<ellipse fill="none" stroke="#000000" cx="126.506" cy="-18" rx="27" ry="18"/>
<text text-anchor="middle" x="126.506" y="-13.8" font-family="Times,serif" font-size="14.00" fill="#000000">halt</text>
</g>
<!-- showdata&#45;&gt;halt -->
<g id="edge29" class="edge">
<title>showdata&#45;&gt;halt</title>
<path fill="none" stroke="#000000" d="M62.738,-89.6785C75.0324,-75.8589 92.4479,-56.283 105.9731,-41.08"/>
<polygon fill="#000000" stroke="#000000" points="108.6117,-43.3798 112.6435,-33.5821 103.3817,-38.7271 108.6117,-43.3798"/>
<text text-anchor="middle" x="118.2262" y="-58.2" font-family="Times,serif" font-size="14.00" fill="#000000"> closing </text>
</g>
<!-- waitdata&#45;&gt;getalldb -->
<g id="edge16" class="edge">
<title>waitdata&#45;&gt;getalldb</title>
<path fill="none" stroke="#000000" d="M151.1778,-209.3218C125.4526,-223.9925 91.506,-249.8899 91.506,-284.4 91.506,-462 91.506,-462 91.506,-462 91.506,-507.6816 144.6577,-530.6329 186.3772,-541.6118"/>
<polygon fill="#000000" stroke="#000000" points="185.6098,-545.0274 196.1573,-544.027 187.2881,-538.2315 185.6098,-545.0274"/>
<text text-anchor="middle" x="117.5509" y="-369" font-family="Times,serif" font-size="14.00" fill="#000000"> chgconf </text>
</g>
<!-- waitdata&#45;&gt;showdata -->
<g id="edge13" class="edge">
<title>waitdata&#45;&gt;showdata</title>
<path fill="none" stroke="#000000" d="M156.5133,-180.1322C135.1986,-165.7933 103.2843,-144.3236 79.4888,-128.3157"/>
<polygon fill="#000000" stroke="#000000" points="81.3748,-125.3662 71.124,-122.6885 77.4676,-131.1743 81.3748,-125.3662"/>
<text text-anchor="middle" x="152.3265" y="-147" font-family="Times,serif" font-size="14.00" fill="#000000"> newdata </text>
</g>
<!-- waitdata&#45;&gt;waitdata -->
<g id="edge24" class="edge">
<title>waitdata&#45;&gt;waitdata</title>
<path fill="none" stroke="#000000" d="M218.3992,-203.8495C231.1224,-203.8069 241.2534,-201.057 241.2534,-195.6 241.2534,-191.763 236.2448,-189.2644 228.8481,-188.1043"/>
<polygon fill="#000000" stroke="#000000" points="228.6251,-184.5792 218.3992,-187.3505 228.1214,-191.561 228.6251,-184.5792"/>
<text text-anchor="middle" x="269.2569" y="-191.4" font-family="Times,serif" font-size="14.00" fill="#000000"> luminsty </text>
</g>
<!-- nodata -->
<g id="node12" class="node">
<title>nodata</title>
<ellipse fill="none" stroke="#000000" cx="333.506" cy="-106.8" rx="36.5594" ry="18"/>
<text text-anchor="middle" x="333.506" y="-102.6" font-family="Times,serif" font-size="14.00" fill="#000000">nodata</text>
</g>
<!-- waitdata&#45;&gt;nodata -->
<g id="edge14" class="edge">
<title>waitdata&#45;&gt;nodata</title>
<path fill="none" stroke="#000000" d="M204.9359,-180.9365C231.1457,-165.8233 272.1088,-142.203 300.7337,-125.6972"/>
<polygon fill="#000000" stroke="#000000" points="302.645,-128.6354 309.5597,-120.608 299.1483,-122.5713 302.645,-128.6354"/>
<text text-anchor="middle" x="292.4338" y="-147" font-family="Times,serif" font-size="14.00" fill="#000000"> errdata </text>
</g>
<!-- waitdata&#45;&gt;halt -->
<g id="edge28" class="edge">
<title>waitdata&#45;&gt;halt</title>
<path fill="none" stroke="#000000" d="M183.0318,-177.5167C186.4653,-155.6961 189.6961,-118.2691 178.506,-88.8 171.736,-70.9715 159.1728,-53.6675 148.0911,-40.6294"/>
<polygon fill="#000000" stroke="#000000" points="150.687,-38.2813 141.4478,-33.096 145.4369,-42.9112 150.687,-38.2813"/>
<text text-anchor="middle" x="210.2262" y="-102.6" font-family="Times,serif" font-size="14.00" fill="#000000"> closing </text>
</g>
<!-- nodata&#45;&gt;getalldb -->
<g id="edge18" class="edge">
<title>nodata&#45;&gt;getalldb</title>
<path fill="none" stroke="#000000" d="M357.6378,-120.4045C380.8703,-135.4913 412.506,-162.1721 412.506,-195.6 412.506,-462 412.506,-462 412.506,-462 412.506,-518.404 339.8097,-538.9842 287.5948,-546.4914"/>
<polygon fill="#000000" stroke="#000000" points="286.9107,-543.0512 277.4525,-547.8253 287.8235,-549.9914 286.9107,-543.0512"/>
<text text-anchor="middle" x="438.5509" y="-324.6" font-family="Times,serif" font-size="14.00" fill="#000000"> chgconf </text>
</g>
<!-- nodata&#45;&gt;getdata -->
<g id="edge15" class="edge">
<title>nodata&#45;&gt;getdata</title>
<path fill="none" stroke="#000000" d="M332.328,-125.1582C330.1485,-147.5852 323.9677,-185.9481 306.506,-213.6 292.6014,-235.6188 269.2957,-253.447 249.6212,-265.7055"/>
<polygon fill="#000000" stroke="#000000" points="247.6629,-262.7986 240.8839,-270.9409 251.2608,-268.8032 247.6629,-262.7986"/>
<text text-anchor="middle" x="346.7718" y="-191.4" font-family="Times,serif" font-size="14.00" fill="#000000"> retryget </text>
</g>
<!-- nodata&#45;&gt;nodata -->
<g id="edge25" class="edge">
<title>nodata&#45;&gt;nodata</title>
<path fill="none" stroke="#000000" d="M366.3954,-115.0374C378.4279,-115.2606 388.285,-112.5148 388.285,-106.8 388.285,-102.871 383.626,-100.3454 376.8041,-99.2231"/>
<polygon fill="#000000" stroke="#000000" points="376.5971,-95.703 366.3954,-98.5626 376.1537,-102.689 376.5971,-95.703"/>
<text text-anchor="middle" x="416.2885" y="-102.6" font-family="Times,serif" font-size="14.00" fill="#000000"> luminsty </text>
</g>
</g>
</svg>
