<?xml version="1.0" encoding="UTF-8" standalone="no"?>
<!DOCTYPE svg PUBLIC "-//W3C//DTD SVG 1.1//EN"
 "http://www.w3.org/Graphics/SVG/1.1/DTD/svg11.dtd">
<!-- Generated by graphviz version 2.40.1 (20161225.0304)
 -->
<!-- Title: fsm Pages: 1 -->
<svg width="534pt" height="932pt"
 viewBox="0.00 0.00 533.65 932.00" xmlns="http://www.w3.org/2000/svg" xmlns:xlink="http://www.w3.org/1999/xlink">
<g id="graph0" class="graph" transform="scale(1 1) rotate(0) translate(4 928)">
<title>fsm</title>
<polygon fill="#ffffff" stroke="transparent" points="-4,4 -4,-928 529.6542,-928 529.6542,4 -4,4"/>
<!-- window -->
<g id="node1" class="node">
<title>window</title>
<ellipse fill="none" stroke="#000000" cx="42.1483" cy="-906" rx="42.2971" ry="18"/>
<text text-anchor="middle" x="42.1483" y="-901.8" font-family="Times,serif" font-size="14.00" fill="#000000">window</text>
</g>
<!-- loading -->
<g id="node2" class="node">
<title>loading</title>
<ellipse fill="none" stroke="#000000" cx="42.1483" cy="-817.2" rx="40.0089" ry="18"/>
<text text-anchor="middle" x="42.1483" y="-813" font-family="Times,serif" font-size="14.00" fill="#000000">loading</text>
</g>
<!-- window&#45;&gt;loading -->
<g id="edge1" class="edge">
<title>window&#45;&gt;loading</title>
<path fill="none" stroke="#000000" d="M42.1483,-887.6006C42.1483,-875.4949 42.1483,-859.4076 42.1483,-845.6674"/>
<polygon fill="#000000" stroke="#000000" points="45.6484,-845.272 42.1483,-835.272 38.6484,-845.2721 45.6484,-845.272"/>
<text text-anchor="middle" x="54.9842" y="-857.4" font-family="Times,serif" font-size="14.00" fill="#000000"> init </text>
</g>
<!-- initga -->
<g id="node3" class="node">
<title>initga</title>
<ellipse fill="none" stroke="#000000" cx="42.1483" cy="-728.4" rx="33.0624" ry="18"/>
<text text-anchor="middle" x="42.1483" y="-724.2" font-family="Times,serif" font-size="14.00" fill="#000000">initga</text>
</g>
<!-- loading&#45;&gt;initga -->
<g id="edge2" class="edge">
<title>loading&#45;&gt;initga</title>
<path fill="none" stroke="#000000" d="M42.1483,-798.8006C42.1483,-786.6949 42.1483,-770.6076 42.1483,-756.8674"/>
<polygon fill="#000000" stroke="#000000" points="45.6484,-756.472 42.1483,-746.472 38.6484,-756.4721 45.6484,-756.472"/>
<text text-anchor="middle" x="64.3082" y="-768.6" font-family="Times,serif" font-size="14.00" fill="#000000"> loaded </text>
</g>
<!-- getid -->
<g id="node4" class="node">
<title>getid</title>
<ellipse fill="none" stroke="#000000" cx="42.1483" cy="-639.6" rx="30.1958" ry="18"/>
<text text-anchor="middle" x="42.1483" y="-635.4" font-family="Times,serif" font-size="14.00" fill="#000000">getid</text>
</g>
<!-- initga&#45;&gt;getid -->
<g id="edge3" class="edge">
<title>initga&#45;&gt;getid</title>
<path fill="none" stroke="#000000" d="M42.1483,-710.0006C42.1483,-697.8949 42.1483,-681.8076 42.1483,-668.0674"/>
<polygon fill="#000000" stroke="#000000" points="45.6484,-667.672 42.1483,-657.672 38.6484,-667.6721 45.6484,-667.672"/>
<text text-anchor="middle" x="61.9842" y="-679.8" font-family="Times,serif" font-size="14.00" fill="#000000"> initok </text>
</g>
<!-- getid&#45;&gt;getid -->
<g id="edge14" class="edge">
<title>getid&#45;&gt;getid</title>
<path fill="none" stroke="#000000" d="M69.4845,-647.7775C80.8562,-648.3415 90.4958,-645.6156 90.4958,-639.6 90.4958,-635.5583 86.1443,-633.0016 79.8397,-631.93"/>
<polygon fill="#000000" stroke="#000000" points="79.6438,-628.4162 69.4845,-631.4225 79.3012,-635.4079 79.6438,-628.4162"/>
<text text-anchor="middle" x="118.4993" y="-635.4" font-family="Times,serif" font-size="14.00" fill="#000000"> luminsty </text>
</g>
<!-- hasid -->
<g id="node5" class="node">
<title>hasid</title>
<ellipse fill="none" stroke="#000000" cx="42.1483" cy="-550.8" rx="31.339" ry="18"/>
<text text-anchor="middle" x="42.1483" y="-546.6" font-family="Times,serif" font-size="14.00" fill="#000000">hasid</text>
</g>
<!-- getid&#45;&gt;hasid -->
<g id="edge4" class="edge">
<title>getid&#45;&gt;hasid</title>
<path fill="none" stroke="#000000" d="M42.1483,-621.2006C42.1483,-609.0949 42.1483,-593.0076 42.1483,-579.2674"/>
<polygon fill="#000000" stroke="#000000" points="45.6484,-578.872 42.1483,-568.872 38.6484,-578.8721 45.6484,-578.872"/>
<text text-anchor="middle" x="58.8685" y="-591" font-family="Times,serif" font-size="14.00" fill="#000000"> setid </text>
</g>
<!-- hasid&#45;&gt;hasid -->
<g id="edge15" class="edge">
<title>hasid&#45;&gt;hasid</title>
<path fill="none" stroke="#000000" d="M70.5876,-558.9996C81.9939,-559.4629 91.5677,-556.7297 91.5677,-550.8 91.5677,-546.816 87.2459,-544.2749 80.9503,-543.1768"/>
<polygon fill="#000000" stroke="#000000" points="80.7666,-539.6612 70.5876,-542.6004 80.3778,-546.6504 80.7666,-539.6612"/>
<text text-anchor="middle" x="119.5712" y="-546.6" font-family="Times,serif" font-size="14.00" fill="#000000"> luminsty </text>
</g>
<!-- getall -->
<g id="node6" class="node">
<title>getall</title>
<ellipse fill="none" stroke="#000000" cx="223.1483" cy="-462" rx="32.4788" ry="18"/>
<text text-anchor="middle" x="223.1483" y="-457.8" font-family="Times,serif" font-size="14.00" fill="#000000">getall</text>
</g>
<!-- hasid&#45;&gt;getall -->
<g id="edge5" class="edge">
<title>hasid&#45;&gt;getall</title>
<path fill="none" stroke="#000000" d="M66.1837,-539.008C97.8743,-523.4604 153.7983,-496.0236 189.6307,-478.444"/>
<polygon fill="#000000" stroke="#000000" points="191.2877,-481.5296 198.7239,-473.9828 188.2045,-475.2452 191.2877,-481.5296"/>
<text text-anchor="middle" x="167.5859" y="-502.2" font-family="Times,serif" font-size="14.00" fill="#000000"> nocfg </text>
</g>
<!-- getpath -->
<g id="node7" class="node">
<title>getpath</title>
<ellipse fill="none" stroke="#000000" cx="107.1483" cy="-284.4" rx="39.4254" ry="18"/>
<text text-anchor="middle" x="107.1483" y="-280.2" font-family="Times,serif" font-size="14.00" fill="#000000">getpath</text>
</g>
<!-- hasid&#45;&gt;getpath -->
<g id="edge6" class="edge">
<title>hasid&#45;&gt;getpath</title>
<path fill="none" stroke="#000000" d="M38.4279,-532.7591C31.9657,-497.3146 21.4895,-416.6927 45.1483,-355.2 52.3086,-336.5893 66.7334,-319.6319 79.8686,-306.9813"/>
<polygon fill="#000000" stroke="#000000" points="82.4073,-309.4013 87.3887,-300.0505 77.6633,-304.2539 82.4073,-309.4013"/>
<text text-anchor="middle" x="54.9155" y="-413.4" font-family="Times,serif" font-size="14.00" fill="#000000"> hascfg </text>
</g>
<!-- getall&#45;&gt;getall -->
<g id="edge18" class="edge">
<title>getall&#45;&gt;getall</title>
<path fill="none" stroke="#000000" d="M252.2034,-470.1996C263.8566,-470.6629 273.6377,-467.9297 273.6377,-462 273.6377,-457.9233 269.0146,-455.3575 262.3384,-454.3025"/>
<polygon fill="#000000" stroke="#000000" points="262.3643,-450.7996 252.2034,-453.8004 262.0179,-457.791 262.3643,-450.7996"/>
<text text-anchor="middle" x="301.6412" y="-457.8" font-family="Times,serif" font-size="14.00" fill="#000000"> luminsty </text>
</g>
<!-- showmenu -->
<g id="node8" class="node">
<title>showmenu</title>
<ellipse fill="none" stroke="#000000" cx="107.1483" cy="-373.2" rx="52.7527" ry="18"/>
<text text-anchor="middle" x="107.1483" y="-369" font-family="Times,serif" font-size="14.00" fill="#000000">showmenu</text>
</g>
<!-- getall&#45;&gt;showmenu -->
<g id="edge7" class="edge">
<title>getall&#45;&gt;showmenu</title>
<path fill="none" stroke="#000000" d="M203.9932,-447.3365C185.7007,-433.3332 157.8676,-412.0265 136.7266,-395.8427"/>
<polygon fill="#000000" stroke="#000000" points="138.7674,-392.9972 128.6994,-389.6977 134.5124,-398.5555 138.7674,-392.9972"/>
<text text-anchor="middle" x="193.4211" y="-413.4" font-family="Times,serif" font-size="14.00" fill="#000000"> setall </text>
</g>
<!-- getpath&#45;&gt;getpath -->
<g id="edge16" class="edge">
<title>getpath&#45;&gt;getpath</title>
<path fill="none" stroke="#000000" d="M142.4996,-292.648C154.7322,-292.7353 164.611,-289.9859 164.611,-284.4 164.611,-280.4724 159.7271,-277.9472 152.575,-276.8243"/>
<polygon fill="#000000" stroke="#000000" points="152.7104,-273.3256 142.4996,-276.152 152.2443,-280.3101 152.7104,-273.3256"/>
<text text-anchor="middle" x="192.6145" y="-280.2" font-family="Times,serif" font-size="14.00" fill="#000000"> luminsty </text>
</g>
<!-- waitdata -->
<g id="node9" class="node">
<title>waitdata</title>
<ellipse fill="none" stroke="#000000" cx="183.1483" cy="-195.6" rx="43.9964" ry="18"/>
<text text-anchor="middle" x="183.1483" y="-191.4" font-family="Times,serif" font-size="14.00" fill="#000000">waitdata</text>
</g>
<!-- getpath&#45;&gt;waitdata -->
<g id="edge9" class="edge">
<title>getpath&#45;&gt;waitdata</title>
<path fill="none" stroke="#000000" d="M121.8019,-267.2785C133.1569,-254.011 149.0529,-235.4377 161.8185,-220.5222"/>
<polygon fill="#000000" stroke="#000000" points="164.6965,-222.5422 168.5397,-212.669 159.3783,-217.9906 164.6965,-222.5422"/>
<text text-anchor="middle" x="176.8075" y="-235.8" font-family="Times,serif" font-size="14.00" fill="#000000"> acksubs </text>
</g>
<!-- showmenu&#45;&gt;getpath -->
<g id="edge8" class="edge">
<title>showmenu&#45;&gt;getpath</title>
<path fill="none" stroke="#000000" d="M107.1483,-354.8006C107.1483,-342.6949 107.1483,-326.6076 107.1483,-312.8674"/>
<polygon fill="#000000" stroke="#000000" points="110.6484,-312.472 107.1483,-302.472 103.6484,-312.4721 110.6484,-312.472"/>
<text text-anchor="middle" x="133.1904" y="-324.6" font-family="Times,serif" font-size="14.00" fill="#000000"> selected </text>
</g>
<!-- showmenu&#45;&gt;showmenu -->
<g id="edge19" class="edge">
<title>showmenu&#45;&gt;showmenu</title>
<path fill="none" stroke="#000000" d="M154.5137,-381.4092C167.8145,-381.0497 178.0245,-378.3133 178.0245,-373.2 178.0245,-369.4849 172.6347,-367.0245 164.5857,-365.8189"/>
<polygon fill="#000000" stroke="#000000" points="164.7669,-362.322 154.5137,-364.9908 164.1933,-369.2985 164.7669,-362.322"/>
<text text-anchor="middle" x="206.028" y="-369" font-family="Times,serif" font-size="14.00" fill="#000000"> luminsty </text>
</g>
<!-- waitdata&#45;&gt;getall -->
<g id="edge12" class="edge">
<title>waitdata&#45;&gt;getall</title>
<path fill="none" stroke="#000000" d="M197.2999,-212.7966C207.7897,-226.4773 221.5363,-246.5554 229.1483,-266.4 249.1376,-318.5123 250.8073,-335.9134 243.1483,-391.2 241.1291,-405.7753 236.877,-421.5703 232.8106,-434.5355"/>
<polygon fill="#000000" stroke="#000000" points="229.4157,-433.6568 229.6354,-444.2493 236.0692,-435.8317 229.4157,-433.6568"/>
<text text-anchor="middle" x="273.1932" y="-324.6" font-family="Times,serif" font-size="14.00" fill="#000000"> chgconf </text>
</g>
<!-- waitdata&#45;&gt;waitdata -->
<g id="edge17" class="edge">
<title>waitdata&#45;&gt;waitdata</title>
<path fill="none" stroke="#000000" d="M222.0415,-203.8495C234.7647,-203.8069 244.8958,-201.057 244.8958,-195.6 244.8958,-191.763 239.8871,-189.2644 232.4905,-188.1043"/>
<polygon fill="#000000" stroke="#000000" points="232.2674,-184.5792 222.0415,-187.3505 231.7637,-191.561 232.2674,-184.5792"/>
<text text-anchor="middle" x="272.8993" y="-191.4" font-family="Times,serif" font-size="14.00" fill="#000000"> luminsty </text>
</g>
<!-- showdata -->
<g id="node10" class="node">
<title>showdata</title>
<ellipse fill="none" stroke="#000000" cx="256.1483" cy="-106.8" rx="47.5119" ry="18"/>
<text text-anchor="middle" x="256.1483" y="-102.6" font-family="Times,serif" font-size="14.00" fill="#000000">showdata</text>
</g>
<!-- waitdata&#45;&gt;showdata -->
<g id="edge10" class="edge">
<title>waitdata&#45;&gt;showdata</title>
<path fill="none" stroke="#000000" d="M197.2234,-178.4785C208.0604,-165.296 223.2032,-146.8756 235.4243,-132.0095"/>
<polygon fill="#000000" stroke="#000000" points="238.2206,-134.1194 241.8673,-124.172 232.8132,-129.6742 238.2206,-134.1194"/>
<text text-anchor="middle" x="252.9688" y="-147" font-family="Times,serif" font-size="14.00" fill="#000000"> newdata </text>
</g>
<!-- showdata&#45;&gt;getall -->
<g id="edge13" class="edge">
<title>showdata&#45;&gt;getall</title>
<path fill="none" stroke="#000000" d="M280.4562,-122.3114C301.692,-137.967 329.1483,-164.267 329.1483,-195.6 329.1483,-373.2 329.1483,-373.2 329.1483,-373.2 329.1483,-410.0264 291.0884,-434.6032 260.5805,-448.388"/>
<polygon fill="#000000" stroke="#000000" points="258.8165,-445.3357 250.9985,-452.4862 261.5693,-451.7717 258.8165,-445.3357"/>
<text text-anchor="middle" x="355.1932" y="-280.2" font-family="Times,serif" font-size="14.00" fill="#000000"> chgconf </text>
</g>
<!-- showdata&#45;&gt;showdata -->
<g id="edge11" class="edge">
<title>showdata&#45;&gt;showdata</title>
<path fill="none" stroke="#000000" d="M303.2554,-109.4829C313.8818,-109.2412 321.6542,-108.3469 321.6542,-106.8 321.6542,-105.809 318.4644,-105.0859 313.3779,-104.6306"/>
<polygon fill="#000000" stroke="#000000" points="313.4199,-101.1283 303.2554,-104.1171 313.0653,-108.1193 313.4199,-101.1283"/>
<text text-anchor="middle" x="348.4747" y="-102.6" font-family="Times,serif" font-size="14.00" fill="#000000"> newdata </text>
</g>
<!-- showdata&#45;&gt;showdata -->
<g id="edge20" class="edge">
<title>showdata&#45;&gt;showdata</title>
<path fill="none" stroke="#000000" d="M302.0039,-111.8024C336.6697,-113.237 375.2952,-111.5695 375.2952,-106.8 375.2952,-102.4962 343.8454,-100.7183 312.2335,-101.466"/>
<polygon fill="#000000" stroke="#000000" points="311.8853,-97.9754 302.0039,-101.7976 312.1121,-104.9717 311.8853,-97.9754"/>
<text text-anchor="middle" x="403.2987" y="-102.6" font-family="Times,serif" font-size="14.00" fill="#000000"> luminsty </text>
</g>
<!-- showdata&#45;&gt;showdata -->
<g id="edge21" class="edge">
<title>showdata&#45;&gt;showdata</title>
<path fill="none" stroke="#000000" d="M300.7694,-113.2069C354.6822,-117.0352 431.3022,-114.8996 431.3022,-106.8 431.3022,-99.1908 363.6796,-96.8452 310.7898,-99.7633"/>
<polygon fill="#000000" stroke="#000000" points="310.5301,-96.2726 300.7694,-100.3931 310.9692,-103.2588 310.5301,-96.2726"/>
<text text-anchor="middle" x="460.8527" y="-102.6" font-family="Times,serif" font-size="14.00" fill="#000000"> swapdisp </text>
</g>
<!-- halt -->
<g id="node11" class="node">
<title>halt</title>
<ellipse fill="none" stroke="#000000" cx="256.1483" cy="-18" rx="27" ry="18"/>
<text text-anchor="middle" x="256.1483" y="-13.8" font-family="Times,serif" font-size="14.00" fill="#000000">halt</text>
</g>
<!-- showdata&#45;&gt;halt -->
<g id="edge22" class="edge">
<title>showdata&#45;&gt;halt</title>
<path fill="none" stroke="#000000" d="M256.1483,-88.4006C256.1483,-76.2949 256.1483,-60.2076 256.1483,-46.4674"/>
<polygon fill="#000000" stroke="#000000" points="259.6484,-46.072 256.1483,-36.072 252.6484,-46.0721 259.6484,-46.072"/>
<text text-anchor="middle" x="279.8685" y="-58.2" font-family="Times,serif" font-size="14.00" fill="#000000"> closing </text>
</g>
</g>
</svg>
