<?xml version="1.0" encoding="UTF-8" standalone="no"?>
<!DOCTYPE svg PUBLIC "-//W3C//DTD SVG 1.1//EN"
 "http://www.w3.org/Graphics/SVG/1.1/DTD/svg11.dtd">
<!-- Generated by graphviz version 2.40.1 (20161225.0304)
 -->
<!-- Title: fsm Pages: 1 -->
<svg width="311pt" height="932pt"
 viewBox="0.00 0.00 311.04 932.00" xmlns="http://www.w3.org/2000/svg" xmlns:xlink="http://www.w3.org/1999/xlink">
<g id="graph0" class="graph" transform="scale(1 1) rotate(0) translate(4 928)">
<title>fsm</title>
<polygon fill="#ffffff" stroke="transparent" points="-4,4 -4,-928 307.0404,-928 307.0404,4 -4,4"/>
<!-- window -->
<g id="node1" class="node">
<title>window</title>
<ellipse fill="none" stroke="#000000" cx="190.506" cy="-906" rx="42.2971" ry="18"/>
<text text-anchor="middle" x="190.506" y="-901.8" font-family="Times,serif" font-size="14.00" fill="#000000">window</text>
</g>
<!-- loading -->
<g id="node2" class="node">
<title>loading</title>
<ellipse fill="none" stroke="#000000" cx="190.506" cy="-817.2" rx="40.0089" ry="18"/>
<text text-anchor="middle" x="190.506" y="-813" font-family="Times,serif" font-size="14.00" fill="#000000">loading</text>
</g>
<!-- window&#45;&gt;loading -->
<g id="edge1" class="edge">
<title>window&#45;&gt;loading</title>
<path fill="none" stroke="#000000" d="M190.506,-887.6006C190.506,-875.4949 190.506,-859.4076 190.506,-845.6674"/>
<polygon fill="#000000" stroke="#000000" points="194.0061,-845.272 190.506,-835.272 187.0061,-845.2721 194.0061,-845.272"/>
<text text-anchor="middle" x="203.3419" y="-857.4" font-family="Times,serif" font-size="14.00" fill="#000000"> init </text>
</g>
<!-- initga -->
<g id="node3" class="node">
<title>initga</title>
<ellipse fill="none" stroke="#000000" cx="190.506" cy="-728.4" rx="33.0624" ry="18"/>
<text text-anchor="middle" x="190.506" y="-724.2" font-family="Times,serif" font-size="14.00" fill="#000000">initga</text>
</g>
<!-- loading&#45;&gt;initga -->
<g id="edge2" class="edge">
<title>loading&#45;&gt;initga</title>
<path fill="none" stroke="#000000" d="M190.506,-798.8006C190.506,-786.6949 190.506,-770.6076 190.506,-756.8674"/>
<polygon fill="#000000" stroke="#000000" points="194.0061,-756.472 190.506,-746.472 187.0061,-756.4721 194.0061,-756.472"/>
<text text-anchor="middle" x="212.6659" y="-768.6" font-family="Times,serif" font-size="14.00" fill="#000000"> loaded </text>
</g>
<!-- getid -->
<g id="node4" class="node">
<title>getid</title>
<ellipse fill="none" stroke="#000000" cx="190.506" cy="-639.6" rx="30.1958" ry="18"/>
<text text-anchor="middle" x="190.506" y="-635.4" font-family="Times,serif" font-size="14.00" fill="#000000">getid</text>
</g>
<!-- initga&#45;&gt;getid -->
<g id="edge3" class="edge">
<title>initga&#45;&gt;getid</title>
<path fill="none" stroke="#000000" d="M190.506,-710.0006C190.506,-697.8949 190.506,-681.8076 190.506,-668.0674"/>
<polygon fill="#000000" stroke="#000000" points="194.0061,-667.672 190.506,-657.672 187.0061,-667.6721 194.0061,-667.672"/>
<text text-anchor="middle" x="210.3419" y="-679.8" font-family="Times,serif" font-size="14.00" fill="#000000"> initok </text>
</g>
<!-- getid&#45;&gt;getid -->
<g id="edge13" class="edge">
<title>getid&#45;&gt;getid</title>
<path fill="none" stroke="#000000" d="M217.8421,-647.7775C229.2139,-648.3415 238.8535,-645.6156 238.8535,-639.6 238.8535,-635.5583 234.502,-633.0016 228.1974,-631.93"/>
<polygon fill="#000000" stroke="#000000" points="228.0015,-628.4162 217.8421,-631.4225 227.6588,-635.4079 228.0015,-628.4162"/>
<text text-anchor="middle" x="266.857" y="-635.4" font-family="Times,serif" font-size="14.00" fill="#000000"> luminsty </text>
</g>
<!-- hasid -->
<g id="node5" class="node">
<title>hasid</title>
<ellipse fill="none" stroke="#000000" cx="190.506" cy="-550.8" rx="31.339" ry="18"/>
<text text-anchor="middle" x="190.506" y="-546.6" font-family="Times,serif" font-size="14.00" fill="#000000">hasid</text>
</g>
<!-- getid&#45;&gt;hasid -->
<g id="edge4" class="edge">
<title>getid&#45;&gt;hasid</title>
<path fill="none" stroke="#000000" d="M190.506,-621.2006C190.506,-609.0949 190.506,-593.0076 190.506,-579.2674"/>
<polygon fill="#000000" stroke="#000000" points="194.0061,-578.872 190.506,-568.872 187.0061,-578.8721 194.0061,-578.872"/>
<text text-anchor="middle" x="207.2262" y="-591" font-family="Times,serif" font-size="14.00" fill="#000000"> setid </text>
</g>
<!-- hasid&#45;&gt;hasid -->
<g id="edge14" class="edge">
<title>hasid&#45;&gt;hasid</title>
<path fill="none" stroke="#000000" d="M218.9453,-558.9996C230.3516,-559.4629 239.9254,-556.7297 239.9254,-550.8 239.9254,-546.816 235.6036,-544.2749 229.308,-543.1768"/>
<polygon fill="#000000" stroke="#000000" points="229.1243,-539.6612 218.9453,-542.6004 228.7354,-546.6504 229.1243,-539.6612"/>
<text text-anchor="middle" x="267.9289" y="-546.6" font-family="Times,serif" font-size="14.00" fill="#000000"> luminsty </text>
</g>
<!-- getall -->
<g id="node6" class="node">
<title>getall</title>
<ellipse fill="none" stroke="#000000" cx="112.506" cy="-462" rx="32.4788" ry="18"/>
<text text-anchor="middle" x="112.506" y="-457.8" font-family="Times,serif" font-size="14.00" fill="#000000">getall</text>
</g>
<!-- hasid&#45;&gt;getall -->
<g id="edge5" class="edge">
<title>hasid&#45;&gt;getall</title>
<path fill="none" stroke="#000000" d="M176.1996,-534.5127C164.2898,-520.9539 147.1609,-501.4533 133.6651,-486.0889"/>
<polygon fill="#000000" stroke="#000000" points="136.2149,-483.6881 126.9858,-478.4848 130.9556,-488.3078 136.2149,-483.6881"/>
<text text-anchor="middle" x="177.9436" y="-502.2" font-family="Times,serif" font-size="14.00" fill="#000000"> nocfg </text>
</g>
<!-- getpath -->
<g id="node7" class="node">
<title>getpath</title>
<ellipse fill="none" stroke="#000000" cx="141.506" cy="-284.4" rx="39.4254" ry="18"/>
<text text-anchor="middle" x="141.506" y="-280.2" font-family="Times,serif" font-size="14.00" fill="#000000">getpath</text>
</g>
<!-- hasid&#45;&gt;getpath -->
<g id="edge6" class="edge">
<title>hasid&#45;&gt;getpath</title>
<path fill="none" stroke="#000000" d="M203.5915,-534.2146C229.3849,-499.361 281.5371,-416.6636 248.506,-355.2 234.4962,-329.131 206.2072,-311.0509 182.2343,-299.6892"/>
<polygon fill="#000000" stroke="#000000" points="183.5149,-296.4275 172.9593,-295.5168 180.6431,-302.8113 183.5149,-296.4275"/>
<text text-anchor="middle" x="281.2732" y="-413.4" font-family="Times,serif" font-size="14.00" fill="#000000"> hascfg </text>
</g>
<!-- getall&#45;&gt;getall -->
<g id="edge17" class="edge">
<title>getall&#45;&gt;getall</title>
<path fill="none" stroke="#000000" d="M141.561,-470.1996C153.2143,-470.6629 162.9954,-467.9297 162.9954,-462 162.9954,-457.9233 158.3723,-455.3575 151.6961,-454.3025"/>
<polygon fill="#000000" stroke="#000000" points="151.722,-450.7996 141.561,-453.8004 151.3755,-457.791 151.722,-450.7996"/>
<text text-anchor="middle" x="190.9989" y="-457.8" font-family="Times,serif" font-size="14.00" fill="#000000"> luminsty </text>
</g>
<!-- showmenu -->
<g id="node8" class="node">
<title>showmenu</title>
<ellipse fill="none" stroke="#000000" cx="112.506" cy="-373.2" rx="52.7527" ry="18"/>
<text text-anchor="middle" x="112.506" y="-369" font-family="Times,serif" font-size="14.00" fill="#000000">showmenu</text>
</g>
<!-- getall&#45;&gt;showmenu -->
<g id="edge7" class="edge">
<title>getall&#45;&gt;showmenu</title>
<path fill="none" stroke="#000000" d="M112.506,-443.6006C112.506,-431.4949 112.506,-415.4076 112.506,-401.6674"/>
<polygon fill="#000000" stroke="#000000" points="116.0061,-401.272 112.506,-391.272 109.0061,-401.2721 116.0061,-401.272"/>
<text text-anchor="middle" x="130.7788" y="-413.4" font-family="Times,serif" font-size="14.00" fill="#000000"> setall </text>
</g>
<!-- getpath&#45;&gt;getpath -->
<g id="edge15" class="edge">
<title>getpath&#45;&gt;getpath</title>
<path fill="none" stroke="#000000" d="M176.8573,-292.648C189.0899,-292.7353 198.9686,-289.9859 198.9686,-284.4 198.9686,-280.4724 194.0848,-277.9472 186.9327,-276.8243"/>
<polygon fill="#000000" stroke="#000000" points="187.0681,-273.3256 176.8573,-276.152 186.602,-280.3101 187.0681,-273.3256"/>
<text text-anchor="middle" x="226.9721" y="-280.2" font-family="Times,serif" font-size="14.00" fill="#000000"> luminsty </text>
</g>
<!-- waitdata -->
<g id="node9" class="node">
<title>waitdata</title>
<ellipse fill="none" stroke="#000000" cx="122.506" cy="-195.6" rx="43.9964" ry="18"/>
<text text-anchor="middle" x="122.506" y="-191.4" font-family="Times,serif" font-size="14.00" fill="#000000">waitdata</text>
</g>
<!-- getpath&#45;&gt;waitdata -->
<g id="edge9" class="edge">
<title>getpath&#45;&gt;waitdata</title>
<path fill="none" stroke="#000000" d="M137.661,-266.43C135.0342,-254.153 131.5004,-237.6372 128.506,-223.6421"/>
<polygon fill="#000000" stroke="#000000" points="131.8601,-222.5896 126.3452,-213.5433 125.015,-224.0543 131.8601,-222.5896"/>
<text text-anchor="middle" x="160.1652" y="-235.8" font-family="Times,serif" font-size="14.00" fill="#000000"> acksubs </text>
</g>
<!-- showmenu&#45;&gt;getpath -->
<g id="edge8" class="edge">
<title>showmenu&#45;&gt;getpath</title>
<path fill="none" stroke="#000000" d="M118.3745,-355.23C122.4232,-342.8327 127.8835,-326.113 132.4823,-312.0312"/>
<polygon fill="#000000" stroke="#000000" points="135.8687,-312.9358 135.6461,-302.3433 129.2145,-310.7626 135.8687,-312.9358"/>
<text text-anchor="middle" x="156.5481" y="-324.6" font-family="Times,serif" font-size="14.00" fill="#000000"> selected </text>
</g>
<!-- showmenu&#45;&gt;showmenu -->
<g id="edge18" class="edge">
<title>showmenu&#45;&gt;showmenu</title>
<path fill="none" stroke="#000000" d="M159.8714,-381.4092C173.1722,-381.0497 183.3821,-378.3133 183.3821,-373.2 183.3821,-369.4849 177.9924,-367.0245 169.9434,-365.8189"/>
<polygon fill="#000000" stroke="#000000" points="170.1246,-362.322 159.8714,-364.9908 169.5509,-369.2985 170.1246,-362.322"/>
<text text-anchor="middle" x="211.3856" y="-369" font-family="Times,serif" font-size="14.00" fill="#000000"> luminsty </text>
</g>
<!-- waitdata&#45;&gt;waitdata -->
<g id="edge16" class="edge">
<title>waitdata&#45;&gt;waitdata</title>
<path fill="none" stroke="#000000" d="M161.3992,-203.8495C174.1224,-203.8069 184.2534,-201.057 184.2534,-195.6 184.2534,-191.763 179.2448,-189.2644 171.8481,-188.1043"/>
<polygon fill="#000000" stroke="#000000" points="171.6251,-184.5792 161.3992,-187.3505 171.1214,-191.561 171.6251,-184.5792"/>
<text text-anchor="middle" x="212.2569" y="-191.4" font-family="Times,serif" font-size="14.00" fill="#000000"> luminsty </text>
</g>
<!-- showdata -->
<g id="node10" class="node">
<title>showdata</title>
<ellipse fill="none" stroke="#000000" cx="47.506" cy="-106.8" rx="47.5119" ry="18"/>
<text text-anchor="middle" x="47.506" y="-102.6" font-family="Times,serif" font-size="14.00" fill="#000000">showdata</text>
</g>
<!-- waitdata&#45;&gt;showdata -->
<g id="edge10" class="edge">
<title>waitdata&#45;&gt;showdata</title>
<path fill="none" stroke="#000000" d="M108.0452,-178.4785C96.9114,-165.296 81.3536,-146.8756 68.7977,-132.0095"/>
<polygon fill="#000000" stroke="#000000" points="71.3047,-129.5533 62.1782,-124.172 65.9568,-134.0701 71.3047,-129.5533"/>
<text text-anchor="middle" x="119.3265" y="-147" font-family="Times,serif" font-size="14.00" fill="#000000"> newdata </text>
</g>
<!-- showdata&#45;&gt;getall -->
<g id="edge12" class="edge">
<title>showdata&#45;&gt;getall</title>
<path fill="none" stroke="#000000" d="M42.267,-124.9952C37.6007,-142.8246 31.506,-170.8494 31.506,-195.6 31.506,-373.2 31.506,-373.2 31.506,-373.2 31.506,-403.7301 57.9632,-428.3682 80.6361,-443.8769"/>
<polygon fill="#000000" stroke="#000000" points="78.7862,-446.8488 89.0774,-449.367 82.6027,-440.9808 78.7862,-446.8488"/>
<text text-anchor="middle" x="57.5509" y="-280.2" font-family="Times,serif" font-size="14.00" fill="#000000"> chgconf </text>
</g>
<!-- showdata&#45;&gt;showdata -->
<g id="edge11" class="edge">
<title>showdata&#45;&gt;showdata</title>
<path fill="none" stroke="#000000" d="M94.0198,-110.8434C104.9489,-110.5111 113.0119,-109.1633 113.0119,-106.8 113.0119,-105.2491 109.5395,-104.1355 104.0634,-103.4593"/>
<polygon fill="#000000" stroke="#000000" points="104.2398,-99.9631 94.0198,-102.7566 103.7511,-106.9461 104.2398,-99.9631"/>
<text text-anchor="middle" x="139.8324" y="-102.6" font-family="Times,serif" font-size="14.00" fill="#000000"> newdata </text>
</g>
<!-- showdata&#45;&gt;showdata -->
<g id="edge19" class="edge">
<title>showdata&#45;&gt;showdata</title>
<path fill="none" stroke="#000000" d="M91.1811,-114.1618C126.3864,-116.5586 166.6529,-114.1047 166.6529,-106.8 166.6529,-100.1801 133.5825,-97.5441 101.1787,-98.892"/>
<polygon fill="#000000" stroke="#000000" points="100.9752,-95.3978 91.1811,-99.4382 101.3572,-102.3874 100.9752,-95.3978"/>
<text text-anchor="middle" x="194.6564" y="-102.6" font-family="Times,serif" font-size="14.00" fill="#000000"> luminsty </text>
</g>
<!-- halt -->
<g id="node11" class="node">
<title>halt</title>
<ellipse fill="none" stroke="#000000" cx="47.506" cy="-18" rx="27" ry="18"/>
<text text-anchor="middle" x="47.506" y="-13.8" font-family="Times,serif" font-size="14.00" fill="#000000">halt</text>
</g>
<!-- showdata&#45;&gt;halt -->
<g id="edge20" class="edge">
<title>showdata&#45;&gt;halt</title>
<path fill="none" stroke="#000000" d="M47.506,-88.4006C47.506,-76.2949 47.506,-60.2076 47.506,-46.4674"/>
<polygon fill="#000000" stroke="#000000" points="51.0061,-46.072 47.506,-36.072 44.0061,-46.0721 51.0061,-46.072"/>
<text text-anchor="middle" x="71.2262" y="-58.2" font-family="Times,serif" font-size="14.00" fill="#000000"> closing </text>
</g>
</g>
</svg>
