<?xml version="1.0" encoding="UTF-8" standalone="no"?>
<!DOCTYPE svg PUBLIC "-//W3C//DTD SVG 1.1//EN"
 "http://www.w3.org/Graphics/SVG/1.1/DTD/svg11.dtd">
<!-- Generated by graphviz version 2.40.1 (20161225.0304)
 -->
<!-- Title: fsm Pages: 1 -->
<svg width="957pt" height="1376pt"
 viewBox="0.00 0.00 957.17 1376.00" xmlns="http://www.w3.org/2000/svg" xmlns:xlink="http://www.w3.org/1999/xlink">
<g id="graph0" class="graph" transform="scale(1 1) rotate(0) translate(4 1372)">
<title>fsm</title>
<polygon fill="#ffffff" stroke="transparent" points="-4,4 -4,-1372 953.1653,-1372 953.1653,4 -4,4"/>
<!-- window -->
<g id="node1" class="node">
<title>window</title>
<ellipse fill="none" stroke="#000000" cx="508" cy="-1350" rx="42.2971" ry="18"/>
<text text-anchor="middle" x="508" y="-1345.8" font-family="Times,serif" font-size="14.00" fill="#000000">window</text>
</g>
<!-- loading -->
<g id="node2" class="node">
<title>loading</title>
<ellipse fill="none" stroke="#000000" cx="508" cy="-1261.2" rx="40.0089" ry="18"/>
<text text-anchor="middle" x="508" y="-1257" font-family="Times,serif" font-size="14.00" fill="#000000">loading</text>
</g>
<!-- window&#45;&gt;loading -->
<g id="edge1" class="edge">
<title>window&#45;&gt;loading</title>
<path fill="none" stroke="#000000" d="M508,-1331.6006C508,-1319.4949 508,-1303.4076 508,-1289.6674"/>
<polygon fill="#000000" stroke="#000000" points="511.5001,-1289.272 508,-1279.272 504.5001,-1289.2721 511.5001,-1289.272"/>
<text text-anchor="middle" x="520.8359" y="-1301.4" font-family="Times,serif" font-size="14.00" fill="#000000"> init </text>
</g>
<!-- initga -->
<g id="node3" class="node">
<title>initga</title>
<ellipse fill="none" stroke="#000000" cx="508" cy="-1172.4" rx="33.0624" ry="18"/>
<text text-anchor="middle" x="508" y="-1168.2" font-family="Times,serif" font-size="14.00" fill="#000000">initga</text>
</g>
<!-- loading&#45;&gt;initga -->
<g id="edge2" class="edge">
<title>loading&#45;&gt;initga</title>
<path fill="none" stroke="#000000" d="M508,-1242.8006C508,-1230.6949 508,-1214.6076 508,-1200.8674"/>
<polygon fill="#000000" stroke="#000000" points="511.5001,-1200.472 508,-1190.472 504.5001,-1200.4721 511.5001,-1200.472"/>
<text text-anchor="middle" x="530.1599" y="-1212.6" font-family="Times,serif" font-size="14.00" fill="#000000"> loaded </text>
</g>
<!-- getid -->
<g id="node4" class="node">
<title>getid</title>
<ellipse fill="none" stroke="#000000" cx="508" cy="-1083.6" rx="30.1958" ry="18"/>
<text text-anchor="middle" x="508" y="-1079.4" font-family="Times,serif" font-size="14.00" fill="#000000">getid</text>
</g>
<!-- initga&#45;&gt;getid -->
<g id="edge3" class="edge">
<title>initga&#45;&gt;getid</title>
<path fill="none" stroke="#000000" d="M508,-1154.0006C508,-1141.8949 508,-1125.8076 508,-1112.0674"/>
<polygon fill="#000000" stroke="#000000" points="511.5001,-1111.672 508,-1101.672 504.5001,-1111.6721 511.5001,-1111.672"/>
<text text-anchor="middle" x="527.8359" y="-1123.8" font-family="Times,serif" font-size="14.00" fill="#000000"> initok </text>
</g>
<!-- hasid -->
<g id="node5" class="node">
<title>hasid</title>
<ellipse fill="none" stroke="#000000" cx="508" cy="-994.8" rx="31.339" ry="18"/>
<text text-anchor="middle" x="508" y="-990.6" font-family="Times,serif" font-size="14.00" fill="#000000">hasid</text>
</g>
<!-- getid&#45;&gt;hasid -->
<g id="edge4" class="edge">
<title>getid&#45;&gt;hasid</title>
<path fill="none" stroke="#000000" d="M508,-1065.2006C508,-1053.0949 508,-1037.0076 508,-1023.2674"/>
<polygon fill="#000000" stroke="#000000" points="511.5001,-1022.872 508,-1012.872 504.5001,-1022.8721 511.5001,-1022.872"/>
<text text-anchor="middle" x="524.7202" y="-1035" font-family="Times,serif" font-size="14.00" fill="#000000"> setid </text>
</g>
<!-- getdisf -->
<g id="node6" class="node">
<title>getdisf</title>
<ellipse fill="none" stroke="#000000" cx="508" cy="-906" rx="37.1367" ry="18"/>
<text text-anchor="middle" x="508" y="-901.8" font-family="Times,serif" font-size="14.00" fill="#000000">getdisf</text>
</g>
<!-- hasid&#45;&gt;getdisf -->
<g id="edge5" class="edge">
<title>hasid&#45;&gt;getdisf</title>
<path fill="none" stroke="#000000" d="M491.3106,-979.4985C486.0435,-973.6039 480.8818,-966.4395 478.1248,-958.8 475.5902,-951.7767 475.5902,-949.0233 478.1248,-942 479.6136,-937.8746 481.8036,-933.8879 484.3327,-930.1648"/>
<polygon fill="#000000" stroke="#000000" points="487.2966,-932.0553 490.6792,-922.0149 481.7736,-927.7544 487.2966,-932.0553"/>
<text text-anchor="middle" x="498.4376" y="-946.2" font-family="Times,serif" font-size="14.00" fill="#000000"> nocfg </text>
</g>
<!-- hasid&#45;&gt;getdisf -->
<g id="edge6" class="edge">
<title>hasid&#45;&gt;getdisf</title>
<path fill="none" stroke="#000000" d="M513.3619,-977.0175C514.8501,-971.2607 516.2601,-964.8104 517,-958.8 517.9123,-951.3893 517.9123,-949.4107 517,-942 516.6832,-939.4264 516.2435,-936.7721 515.7274,-934.1262"/>
<polygon fill="#000000" stroke="#000000" points="519.0891,-933.1246 513.4568,-924.1509 512.2636,-934.6783 519.0891,-933.1246"/>
<text text-anchor="middle" x="539.7672" y="-946.2" font-family="Times,serif" font-size="14.00" fill="#000000"> hascfg </text>
</g>
<!-- waiting -->
<g id="node7" class="node">
<title>waiting</title>
<ellipse fill="none" stroke="#000000" cx="508" cy="-817.2" rx="40.005" ry="18"/>
<text text-anchor="middle" x="508" y="-813" font-family="Times,serif" font-size="14.00" fill="#000000">waiting</text>
</g>
<!-- getdisf&#45;&gt;waiting -->
<g id="edge7" class="edge">
<title>getdisf&#45;&gt;waiting</title>
<path fill="none" stroke="#000000" d="M488.8506,-890.2884C483.266,-884.5535 477.8735,-877.5928 474.9144,-870 472.2031,-863.043 472.2031,-860.157 474.9144,-853.2 476.5895,-848.9019 479.0444,-844.8063 481.8724,-841.0209"/>
<polygon fill="#000000" stroke="#000000" points="484.6608,-843.1456 488.5018,-833.2716 479.3416,-838.5952 484.6608,-843.1456"/>
<text text-anchor="middle" x="497.5428" y="-857.4" font-family="Times,serif" font-size="14.00" fill="#000000"> getfeet </text>
</g>
<!-- getdisf&#45;&gt;waiting -->
<g id="edge8" class="edge">
<title>getdisf&#45;&gt;waiting</title>
<path fill="none" stroke="#000000" d="M515.2692,-887.9725C517.2063,-882.3148 519.0291,-875.9828 520,-870 521.196,-862.6297 521.196,-860.5703 520,-853.2 519.5601,-850.4891 518.9452,-847.7064 518.2241,-844.9473"/>
<polygon fill="#000000" stroke="#000000" points="521.5266,-843.7771 515.2692,-835.2275 514.8292,-845.8132 521.5266,-843.7771"/>
<text text-anchor="middle" x="550.5428" y="-857.4" font-family="Times,serif" font-size="14.00" fill="#000000"> nogetfeet </text>
</g>
<!-- waiting&#45;&gt;waiting -->
<g id="edge9" class="edge">
<title>waiting&#45;&gt;waiting</title>
<path fill="none" stroke="#000000" d="M547.5805,-819.9258C558.063,-819.7701 566.0025,-818.8615 566.0025,-817.2 566.0025,-816.1356 562.7442,-815.3802 557.6462,-814.9338"/>
<polygon fill="#000000" stroke="#000000" points="557.7297,-811.4341 547.5805,-814.4742 557.4104,-818.4268 557.7297,-811.4341"/>
<text text-anchor="middle" x="599.0523" y="-813" font-family="Times,serif" font-size="14.00" fill="#000000"> sldstopack </text>
</g>
<!-- waiting&#45;&gt;waiting -->
<g id="edge10" class="edge">
<title>waiting&#45;&gt;waiting</title>
<path fill="none" stroke="#000000" d="M546.7378,-821.8608C584.3518,-823.8525 632.1021,-822.299 632.1021,-817.2 632.1021,-812.5592 592.5465,-810.8552 557.0794,-812.0882"/>
<polygon fill="#000000" stroke="#000000" points="556.5757,-808.6068 546.7378,-812.5392 556.8808,-815.6001 556.5757,-808.6068"/>
<text text-anchor="middle" x="663.5902" y="-813" font-family="Times,serif" font-size="14.00" fill="#000000"> newsldata </text>
</g>
<!-- waiting&#45;&gt;waiting -->
<g id="edge31" class="edge">
<title>waiting&#45;&gt;waiting</title>
<path fill="none" stroke="#000000" d="M546.0595,-823.0526C602.85,-827.6157 695.0783,-825.6648 695.0783,-817.2 695.0783,-809.2311 613.3414,-807.0353 556.3816,-810.6123"/>
<polygon fill="#000000" stroke="#000000" points="555.7857,-807.1458 546.0595,-811.3474 556.2829,-814.1281 555.7857,-807.1458"/>
<text text-anchor="middle" x="723.0818" y="-813" font-family="Times,serif" font-size="14.00" fill="#000000"> luminsty </text>
</g>
<!-- isready -->
<g id="node8" class="node">
<title>isready</title>
<ellipse fill="none" stroke="#000000" cx="353" cy="-728.4" rx="38.842" ry="18"/>
<text text-anchor="middle" x="353" y="-724.2" font-family="Times,serif" font-size="14.00" fill="#000000">isready</text>
</g>
<!-- waiting&#45;&gt;isready -->
<g id="edge11" class="edge">
<title>waiting&#45;&gt;isready</title>
<path fill="none" stroke="#000000" d="M479.9003,-804.1537C466.6907,-797.707 450.8822,-789.5341 437.237,-781.2 426.3611,-774.5573 424.6629,-771.3794 414,-764.4 405.2802,-758.6924 395.6484,-752.8183 386.6641,-747.5136"/>
<polygon fill="#000000" stroke="#000000" points="388.3537,-744.4472 377.9535,-742.4259 384.8232,-750.4917 388.3537,-744.4472"/>
<text text-anchor="middle" x="466.3815" y="-768.6" font-family="Times,serif" font-size="14.00" fill="#000000"> btnarmw </text>
</g>
<!-- halt -->
<g id="node18" class="node">
<title>halt</title>
<ellipse fill="none" stroke="#000000" cx="288" cy="-18" rx="27" ry="18"/>
<text text-anchor="middle" x="288" y="-13.8" font-family="Times,serif" font-size="14.00" fill="#000000">halt</text>
</g>
<!-- waiting&#45;&gt;halt -->
<g id="edge42" class="edge">
<title>waiting&#45;&gt;halt</title>
<path fill="none" stroke="#000000" d="M468.1381,-814.4373C348.3818,-805.6098 0,-775.8518 0,-728.4 0,-728.4 0,-728.4 0,-106.8 0,-54.8912 173.0105,-30.1032 250.8416,-21.5783"/>
<polygon fill="#000000" stroke="#000000" points="251.5898,-25.0186 261.1643,-20.4822 250.8506,-18.0578 251.5898,-25.0186"/>
<text text-anchor="middle" x="23.7202" y="-413.4" font-family="Times,serif" font-size="14.00" fill="#000000"> closing </text>
</g>
<!-- isready&#45;&gt;waiting -->
<g id="edge13" class="edge">
<title>isready&#45;&gt;waiting</title>
<path fill="none" stroke="#000000" d="M346.437,-746.3927C343.6013,-757.5674 342.4539,-771.5831 350.1248,-781.2 363.538,-798.0161 417.3299,-807.5918 458.4325,-812.5744"/>
<polygon fill="#000000" stroke="#000000" points="458.2415,-816.0755 468.5766,-813.7438 459.0432,-809.1215 458.2415,-816.0755"/>
<text text-anchor="middle" x="380.9376" y="-768.6" font-family="Times,serif" font-size="14.00" fill="#000000"> nochkrdy </text>
</g>
<!-- isready&#45;&gt;isready -->
<g id="edge32" class="edge">
<title>isready&#45;&gt;isready</title>
<path fill="none" stroke="#000000" d="M387.738,-736.6455C399.9842,-736.7774 409.9209,-734.0289 409.9209,-728.4 409.9209,-724.4422 405.0084,-721.9084 397.8346,-720.7986"/>
<polygon fill="#000000" stroke="#000000" points="397.9405,-717.2984 387.738,-720.1545 397.4948,-724.2842 397.9405,-717.2984"/>
<text text-anchor="middle" x="437.9244" y="-724.2" font-family="Times,serif" font-size="14.00" fill="#000000"> luminsty </text>
</g>
<!-- getusrs -->
<g id="node9" class="node">
<title>getusrs</title>
<ellipse fill="none" stroke="#000000" cx="353" cy="-639.6" rx="38.2799" ry="18"/>
<text text-anchor="middle" x="353" y="-635.4" font-family="Times,serif" font-size="14.00" fill="#000000">getusrs</text>
</g>
<!-- isready&#45;&gt;getusrs -->
<g id="edge12" class="edge">
<title>isready&#45;&gt;getusrs</title>
<path fill="none" stroke="#000000" d="M353,-710.0006C353,-697.8949 353,-681.8076 353,-668.0674"/>
<polygon fill="#000000" stroke="#000000" points="356.5001,-667.672 353,-657.672 349.5001,-667.6721 356.5001,-667.672"/>
<text text-anchor="middle" x="375.9376" y="-679.8" font-family="Times,serif" font-size="14.00" fill="#000000"> chkrdy </text>
</g>
<!-- isready&#45;&gt;halt -->
<g id="edge43" class="edge">
<title>isready&#45;&gt;halt</title>
<path fill="none" stroke="#000000" d="M314.6576,-724.8116C235.6385,-716.3537 62,-691.8265 62,-639.6 62,-639.6 62,-639.6 62,-106.8 62,-70.6062 91.5806,-70.0927 124,-54 164.6993,-33.7972 216.638,-24.8501 251.04,-20.9418"/>
<polygon fill="#000000" stroke="#000000" points="251.5415,-24.4085 261.1216,-19.8838 250.8109,-17.4467 251.5415,-24.4085"/>
<text text-anchor="middle" x="85.7202" y="-369" font-family="Times,serif" font-size="14.00" fill="#000000"> closing </text>
</g>
<!-- getusrs&#45;&gt;getusrs -->
<g id="edge33" class="edge">
<title>getusrs&#45;&gt;getusrs</title>
<path fill="none" stroke="#000000" d="M387.1356,-647.8419C399.3949,-648.0192 409.3898,-645.2719 409.3898,-639.6 409.3898,-635.612 404.4485,-633.0698 397.2531,-631.9735"/>
<polygon fill="#000000" stroke="#000000" points="397.3297,-628.4717 387.1356,-631.3581 396.9046,-635.4588 397.3297,-628.4717"/>
<text text-anchor="middle" x="437.3933" y="-635.4" font-family="Times,serif" font-size="14.00" fill="#000000"> luminsty </text>
</g>
<!-- marking -->
<g id="node10" class="node">
<title>marking</title>
<ellipse fill="none" stroke="#000000" cx="353" cy="-550.8" rx="43.4396" ry="18"/>
<text text-anchor="middle" x="353" y="-546.6" font-family="Times,serif" font-size="14.00" fill="#000000">marking</text>
</g>
<!-- getusrs&#45;&gt;marking -->
<g id="edge14" class="edge">
<title>getusrs&#45;&gt;marking</title>
<path fill="none" stroke="#000000" d="M353,-621.2006C353,-609.0949 353,-593.0076 353,-579.2674"/>
<polygon fill="#000000" stroke="#000000" points="356.5001,-578.872 353,-568.872 349.5001,-578.8721 356.5001,-578.872"/>
<text text-anchor="middle" x="379.8275" y="-591" font-family="Times,serif" font-size="14.00" fill="#000000"> nousersl </text>
</g>
<!-- btnfade -->
<g id="node11" class="node">
<title>btnfade</title>
<ellipse fill="none" stroke="#000000" cx="633" cy="-195.6" rx="39.9876" ry="18"/>
<text text-anchor="middle" x="633" y="-191.4" font-family="Times,serif" font-size="14.00" fill="#000000">btnfade</text>
</g>
<!-- getusrs&#45;&gt;btnfade -->
<g id="edge15" class="edge">
<title>getusrs&#45;&gt;btnfade</title>
<path fill="none" stroke="#000000" d="M381.4462,-627.4205C408.3198,-615.0742 448.8879,-594.2001 479,-568.8 595.5135,-470.519 644.0737,-446.07 695,-302.4 700.3456,-287.3194 700.4468,-281.4443 695,-266.4 688.2582,-247.7788 674.0012,-230.919 660.8571,-218.3271"/>
<polygon fill="#000000" stroke="#000000" points="663.0529,-215.5922 653.3118,-211.4253 658.3282,-220.7573 663.0529,-215.5922"/>
<text text-anchor="middle" x="663.8275" y="-413.4" font-family="Times,serif" font-size="14.00" fill="#000000"> usersl </text>
</g>
<!-- getusrs&#45;&gt;halt -->
<g id="edge44" class="edge">
<title>getusrs&#45;&gt;halt</title>
<path fill="none" stroke="#000000" d="M317.332,-632.6171C255.9819,-619.5757 137,-589.3181 137,-550.8 137,-550.8 137,-550.8 137,-417.6 137,-380.5009 120.135,-373.8777 114.5596,-337.2 111.0314,-313.9897 113,-307.8769 113,-284.4 113,-284.4 113,-284.4 113,-106.8 113,-45.4432 199.6065,-26.4672 250.9664,-20.6085"/>
<polygon fill="#000000" stroke="#000000" points="251.4493,-24.0774 261.0398,-19.5748 250.7347,-17.114 251.4493,-24.0774"/>
<text text-anchor="middle" x="138.7202" y="-324.6" font-family="Times,serif" font-size="14.00" fill="#000000"> closing </text>
</g>
<!-- marking&#45;&gt;waiting -->
<g id="edge27" class="edge">
<title>marking&#45;&gt;waiting</title>
<path fill="none" stroke="#000000" d="M387.3489,-561.7372C415.219,-572.4558 453.1831,-591.6082 474,-621.6 509.3606,-672.5455 511.8114,-748.4977 510.1452,-789.1414"/>
<polygon fill="#000000" stroke="#000000" points="506.649,-788.9789 509.6204,-799.1485 513.6394,-789.3455 506.649,-788.9789"/>
<text text-anchor="middle" x="529.4355" y="-679.8" font-family="Times,serif" font-size="14.00" fill="#000000"> btnarmc </text>
</g>
<!-- marking&#45;&gt;marking -->
<g id="edge34" class="edge">
<title>marking&#45;&gt;marking</title>
<path fill="none" stroke="#000000" d="M391.5605,-559.0495C404.1748,-559.0069 414.2192,-556.257 414.2192,-550.8 414.2192,-546.963 409.2534,-544.4644 401.9201,-543.3043"/>
<polygon fill="#000000" stroke="#000000" points="401.7881,-539.7855 391.5605,-542.5505 401.2801,-546.767 401.7881,-539.7855"/>
<text text-anchor="middle" x="442.2227" y="-546.6" font-family="Times,serif" font-size="14.00" fill="#000000"> luminsty </text>
</g>
<!-- oneport -->
<g id="node12" class="node">
<title>oneport</title>
<ellipse fill="none" stroke="#000000" cx="418" cy="-462" rx="40.5712" ry="18"/>
<text text-anchor="middle" x="418" y="-457.8" font-family="Times,serif" font-size="14.00" fill="#000000">oneport</text>
</g>
<!-- marking&#45;&gt;oneport -->
<g id="edge16" class="edge">
<title>marking&#45;&gt;oneport</title>
<path fill="none" stroke="#000000" d="M365.8419,-533.256C375.4296,-520.1577 388.6734,-502.0646 399.4163,-487.3883"/>
<polygon fill="#000000" stroke="#000000" points="402.3236,-489.342 405.4059,-479.2054 396.6751,-485.2074 402.3236,-489.342"/>
<text text-anchor="middle" x="422.7209" y="-502.2" font-family="Times,serif" font-size="14.00" fill="#000000"> btnportd1 </text>
</g>
<!-- onestbd -->
<g id="node13" class="node">
<title>onestbd</title>
<ellipse fill="none" stroke="#000000" cx="244" cy="-462" rx="41.1529" ry="18"/>
<text text-anchor="middle" x="244" y="-457.8" font-family="Times,serif" font-size="14.00" fill="#000000">onestbd</text>
</g>
<!-- marking&#45;&gt;onestbd -->
<g id="edge17" class="edge">
<title>marking&#45;&gt;onestbd</title>
<path fill="none" stroke="#000000" d="M333.2609,-534.719C315.9758,-520.6371 290.6842,-500.0326 271.4323,-484.3485"/>
<polygon fill="#000000" stroke="#000000" points="273.5558,-481.564 263.5922,-477.9614 269.1345,-486.991 273.5558,-481.564"/>
<text text-anchor="middle" x="340.1129" y="-502.2" font-family="Times,serif" font-size="14.00" fill="#000000"> btnstbdd1 </text>
</g>
<!-- marking&#45;&gt;halt -->
<g id="edge45" class="edge">
<title>marking&#45;&gt;halt</title>
<path fill="none" stroke="#000000" d="M312.7204,-543.9838C275.9043,-535.5434 222.9221,-517.4144 194,-480 177.5183,-458.6789 159,-266.9487 159,-240 159,-240 159,-240 159,-106.8 159,-61.2503 214.2448,-37.2881 252.4287,-26.1661"/>
<polygon fill="#000000" stroke="#000000" points="253.4863,-29.5053 262.205,-23.4858 251.6354,-22.7545 253.4863,-29.5053"/>
<text text-anchor="middle" x="187.7202" y="-280.2" font-family="Times,serif" font-size="14.00" fill="#000000"> closing </text>
</g>
<!-- btnfade&#45;&gt;waiting -->
<g id="edge29" class="edge">
<title>btnfade&#45;&gt;waiting</title>
<path fill="none" stroke="#000000" d="M667.1006,-205.0516C702.2649,-217.1231 752,-241.7377 752,-284.4 752,-728.4 752,-728.4 752,-728.4 752,-769.6475 627.3156,-797.3009 556.2065,-809.718"/>
<polygon fill="#000000" stroke="#000000" points="555.3933,-806.3061 546.125,-811.4393 556.5714,-813.2063 555.3933,-806.3061"/>
<text text-anchor="middle" x="778.4355" y="-502.2" font-family="Times,serif" font-size="14.00" fill="#000000"> btnarma </text>
</g>
<!-- btnfade&#45;&gt;btnfade -->
<g id="edge40" class="edge">
<title>btnfade&#45;&gt;btnfade</title>
<path fill="none" stroke="#000000" d="M668.6781,-203.848C681.0238,-203.9353 690.9938,-201.1859 690.9938,-195.6 690.9938,-191.6724 686.0648,-189.1472 678.8466,-188.0243"/>
<polygon fill="#000000" stroke="#000000" points="678.8872,-184.5194 668.6781,-187.352 678.4253,-191.5042 678.8872,-184.5194"/>
<text text-anchor="middle" x="718.9973" y="-191.4" font-family="Times,serif" font-size="14.00" fill="#000000"> luminsty </text>
</g>
<!-- armed -->
<g id="node17" class="node">
<title>armed</title>
<ellipse fill="none" stroke="#000000" cx="683" cy="-106.8" rx="35.3315" ry="18"/>
<text text-anchor="middle" x="683" y="-102.6" font-family="Times,serif" font-size="14.00" fill="#000000">armed</text>
</g>
<!-- btnfade&#45;&gt;armed -->
<g id="edge24" class="edge">
<title>btnfade&#45;&gt;armed</title>
<path fill="none" stroke="#000000" d="M642.8784,-178.056C650.069,-165.2855 659.933,-147.767 668.0809,-133.2963"/>
<polygon fill="#000000" stroke="#000000" points="671.2855,-134.7385 673.1421,-124.3076 665.186,-131.304 671.2855,-134.7385"/>
<text text-anchor="middle" x="689.9902" y="-147" font-family="Times,serif" font-size="14.00" fill="#000000"> btnfaded </text>
</g>
<!-- btnfade&#45;&gt;halt -->
<g id="edge51" class="edge">
<title>btnfade&#45;&gt;halt</title>
<path fill="none" stroke="#000000" d="M623.0549,-177.9286C603.3017,-143.4788 558.8873,-69.3606 534,-54 499.7831,-32.8812 385.0717,-23.4341 325.1552,-19.8558"/>
<polygon fill="#000000" stroke="#000000" points="325.1685,-16.3509 314.9847,-19.2734 324.7683,-23.3394 325.1685,-16.3509"/>
<text text-anchor="middle" x="613.7202" y="-102.6" font-family="Times,serif" font-size="14.00" fill="#000000"> closing </text>
</g>
<!-- oneport&#45;&gt;oneport -->
<g id="edge35" class="edge">
<title>oneport&#45;&gt;oneport</title>
<path fill="none" stroke="#000000" d="M454.2985,-470.2495C466.6266,-470.2928 476.5356,-467.543 476.5356,-462 476.5356,-458.1026 471.6367,-455.5861 464.4426,-454.4505"/>
<polygon fill="#000000" stroke="#000000" points="464.5157,-450.9473 454.2985,-453.7505 464.0338,-457.9307 464.5157,-450.9473"/>
<text text-anchor="middle" x="504.5391" y="-457.8" font-family="Times,serif" font-size="14.00" fill="#000000"> luminsty </text>
</g>
<!-- onemark -->
<g id="node14" class="node">
<title>onemark</title>
<ellipse fill="none" stroke="#000000" cx="404" cy="-373.2" rx="44.6453" ry="18"/>
<text text-anchor="middle" x="404" y="-369" font-family="Times,serif" font-size="14.00" fill="#000000">onemark</text>
</g>
<!-- oneport&#45;&gt;onemark -->
<g id="edge18" class="edge">
<title>oneport&#45;&gt;onemark</title>
<path fill="none" stroke="#000000" d="M415.1669,-444.03C413.2441,-431.8338 410.6617,-415.4543 408.4647,-401.5187"/>
<polygon fill="#000000" stroke="#000000" points="411.8917,-400.781 406.8769,-391.4481 404.9771,-401.8712 411.8917,-400.781"/>
<text text-anchor="middle" x="440.5975" y="-413.4" font-family="Times,serif" font-size="14.00" fill="#000000"> markack </text>
</g>
<!-- oneport&#45;&gt;halt -->
<g id="edge46" class="edge">
<title>oneport&#45;&gt;halt</title>
<path fill="none" stroke="#000000" d="M399.4801,-445.9639C384.6998,-432.4587 364.1894,-412.0537 350,-391.2 310.7264,-333.4807 299.4441,-316.6084 284.5596,-248.4 283.7636,-244.7525 284.5596,-243.7333 284.5596,-240 284.5596,-240 284.5596,-240 288,-106.8 288,-86.5006 288,-63.591 288,-46.1264"/>
<polygon fill="#000000" stroke="#000000" points="291.5001,-46.0279 288,-36.0279 284.5001,-46.0279 291.5001,-46.0279"/>
<text text-anchor="middle" x="308.7202" y="-235.8" font-family="Times,serif" font-size="14.00" fill="#000000"> closing </text>
</g>
<!-- onestbd&#45;&gt;onestbd -->
<g id="edge36" class="edge">
<title>onestbd&#45;&gt;onestbd</title>
<path fill="none" stroke="#000000" d="M280.6338,-470.2495C293.0759,-470.2928 303.0764,-467.543 303.0764,-462 303.0764,-458.1026 298.1323,-455.5861 290.8717,-454.4505"/>
<polygon fill="#000000" stroke="#000000" points="290.8493,-450.9408 280.6338,-453.7505 290.3718,-457.9245 290.8493,-450.9408"/>
<text text-anchor="middle" x="331.0799" y="-457.8" font-family="Times,serif" font-size="14.00" fill="#000000"> luminsty </text>
</g>
<!-- onestbd&#45;&gt;onemark -->
<g id="edge19" class="edge">
<title>onestbd&#45;&gt;onemark</title>
<path fill="none" stroke="#000000" d="M269.7068,-447.7327C296.5252,-432.8485 338.7564,-409.4102 368.693,-392.7954"/>
<polygon fill="#000000" stroke="#000000" points="370.5131,-395.7882 377.5582,-387.8752 367.1161,-389.6677 370.5131,-395.7882"/>
<text text-anchor="middle" x="366.5975" y="-413.4" font-family="Times,serif" font-size="14.00" fill="#000000"> markack </text>
</g>
<!-- onestbd&#45;&gt;halt -->
<g id="edge47" class="edge">
<title>onestbd&#45;&gt;halt</title>
<path fill="none" stroke="#000000" d="M238.8248,-444.0093C228.3366,-405.1198 206.5506,-310.3712 218.5596,-231.6 229.1784,-161.948 259.4005,-84.2094 276.2635,-44.4979"/>
<polygon fill="#000000" stroke="#000000" points="279.5056,-45.8183 280.2428,-35.2491 273.0755,-43.0517 279.5056,-45.8183"/>
<text text-anchor="middle" x="242.7202" y="-235.8" font-family="Times,serif" font-size="14.00" fill="#000000"> closing </text>
</g>
<!-- onemark&#45;&gt;waiting -->
<g id="edge28" class="edge">
<title>onemark&#45;&gt;waiting</title>
<path fill="none" stroke="#000000" d="M448.2816,-376.5173C519.6201,-382.2536 653.6869,-394.8036 670,-409.2 688.2029,-425.2641 684,-437.7224 684,-462 684,-728.4 684,-728.4 684,-728.4 684,-785.1913 610.0528,-805.6688 558.0225,-813.0482"/>
<polygon fill="#000000" stroke="#000000" points="557.4038,-809.599 547.9371,-814.3563 558.3043,-816.5409 557.4038,-809.599"/>
<text text-anchor="middle" x="710.4355" y="-591" font-family="Times,serif" font-size="14.00" fill="#000000"> btnarmc </text>
</g>
<!-- onemark&#45;&gt;onemark -->
<g id="edge37" class="edge">
<title>onemark&#45;&gt;onemark</title>
<path fill="none" stroke="#000000" d="M443.8755,-381.448C456.6766,-381.3634 466.8223,-378.6141 466.8223,-373.2 466.8223,-369.3086 461.581,-366.7939 453.8796,-365.6557"/>
<polygon fill="#000000" stroke="#000000" points="454.0965,-362.1624 443.8755,-364.952 453.6052,-369.1452 454.0965,-362.1624"/>
<text text-anchor="middle" x="494.8258" y="-369" font-family="Times,serif" font-size="14.00" fill="#000000"> luminsty </text>
</g>
<!-- twoport -->
<g id="node15" class="node">
<title>twoport</title>
<ellipse fill="none" stroke="#000000" cx="571" cy="-284.4" rx="41.1509" ry="18"/>
<text text-anchor="middle" x="571" y="-280.2" font-family="Times,serif" font-size="14.00" fill="#000000">twoport</text>
</g>
<!-- onemark&#45;&gt;twoport -->
<g id="edge20" class="edge">
<title>onemark&#45;&gt;twoport</title>
<path fill="none" stroke="#000000" d="M431.2031,-358.7351C459.5977,-343.6367 504.2497,-319.8936 535.4258,-303.3161"/>
<polygon fill="#000000" stroke="#000000" points="537.4494,-306.2042 544.6355,-298.4189 534.1629,-300.0236 537.4494,-306.2042"/>
<text text-anchor="middle" x="533.7209" y="-324.6" font-family="Times,serif" font-size="14.00" fill="#000000"> btnportd2 </text>
</g>
<!-- twostbd -->
<g id="node16" class="node">
<title>twostbd</title>
<ellipse fill="none" stroke="#000000" cx="396" cy="-284.4" rx="41.7327" ry="18"/>
<text text-anchor="middle" x="396" y="-280.2" font-family="Times,serif" font-size="14.00" fill="#000000">twostbd</text>
</g>
<!-- onemark&#45;&gt;twostbd -->
<g id="edge21" class="edge">
<title>onemark&#45;&gt;twostbd</title>
<path fill="none" stroke="#000000" d="M402.3424,-354.8006C401.241,-342.575 399.7738,-326.2887 398.5279,-312.4599"/>
<polygon fill="#000000" stroke="#000000" points="402.0114,-312.1176 397.6281,-302.472 395.0396,-312.7458 402.0114,-312.1176"/>
<text text-anchor="middle" x="432.1129" y="-324.6" font-family="Times,serif" font-size="14.00" fill="#000000"> btnstbdd2 </text>
</g>
<!-- onemark&#45;&gt;halt -->
<g id="edge48" class="edge">
<title>onemark&#45;&gt;halt</title>
<path fill="none" stroke="#000000" d="M385.2832,-356.5335C371.7149,-343.2862 354.1965,-323.5253 345,-302.4 332.339,-273.3165 340.9845,-262.9258 336,-231.6 323.371,-152.2317 324.2115,-131.2364 302,-54 301.1382,-51.0032 300.1275,-47.9073 299.0506,-44.8472"/>
<polygon fill="#000000" stroke="#000000" points="302.2792,-43.4888 295.4853,-35.359 295.7265,-45.9511 302.2792,-43.4888"/>
<text text-anchor="middle" x="357.7202" y="-191.4" font-family="Times,serif" font-size="14.00" fill="#000000"> closing </text>
</g>
<!-- twoport&#45;&gt;btnfade -->
<g id="edge22" class="edge">
<title>twoport&#45;&gt;btnfade</title>
<path fill="none" stroke="#000000" d="M583.2492,-266.856C592.3089,-253.8801 604.7911,-236.0024 614.986,-221.4006"/>
<polygon fill="#000000" stroke="#000000" points="618.1322,-223.0084 620.9872,-212.8054 612.3927,-219.001 618.1322,-223.0084"/>
<text text-anchor="middle" x="634.5975" y="-235.8" font-family="Times,serif" font-size="14.00" fill="#000000"> markack </text>
</g>
<!-- twoport&#45;&gt;twoport -->
<g id="edge38" class="edge">
<title>twoport&#45;&gt;twoport</title>
<path fill="none" stroke="#000000" d="M607.6332,-292.6495C620.0751,-292.6928 630.0754,-289.943 630.0754,-284.4 630.0754,-280.5026 625.1314,-277.9861 617.8709,-276.8505"/>
<polygon fill="#000000" stroke="#000000" points="617.8487,-273.3409 607.6332,-276.1505 617.3712,-280.3245 617.8487,-273.3409"/>
<text text-anchor="middle" x="658.0789" y="-280.2" font-family="Times,serif" font-size="14.00" fill="#000000"> luminsty </text>
</g>
<!-- twoport&#45;&gt;halt -->
<g id="edge49" class="edge">
<title>twoport&#45;&gt;halt</title>
<path fill="none" stroke="#000000" d="M560.4525,-266.9036C534.2497,-224.7677 462.0589,-116.5323 376,-54 360.0371,-42.401 339.7942,-33.7848 322.7491,-27.8948"/>
<polygon fill="#000000" stroke="#000000" points="323.732,-24.5338 313.1392,-24.74 321.5486,-31.1845 323.732,-24.5338"/>
<text text-anchor="middle" x="506.7202" y="-147" font-family="Times,serif" font-size="14.00" fill="#000000"> closing </text>
</g>
<!-- twostbd&#45;&gt;btnfade -->
<g id="edge23" class="edge">
<title>twostbd&#45;&gt;btnfade</title>
<path fill="none" stroke="#000000" d="M427.5939,-272.546C456.1293,-261.8411 499.2768,-245.6585 536.805,-231.6 555.0911,-224.7498 575.335,-217.1727 592.5156,-210.7442"/>
<polygon fill="#000000" stroke="#000000" points="594.0999,-213.8884 602.2393,-207.106 591.6469,-207.3323 594.0999,-213.8884"/>
<text text-anchor="middle" x="564.5975" y="-235.8" font-family="Times,serif" font-size="14.00" fill="#000000"> markack </text>
</g>
<!-- twostbd&#45;&gt;twostbd -->
<g id="edge39" class="edge">
<title>twostbd&#45;&gt;twostbd</title>
<path fill="none" stroke="#000000" d="M433.2601,-292.65C445.6802,-292.65 455.6162,-289.9 455.6162,-284.4 455.6162,-280.5328 450.704,-278.0252 443.47,-276.8771"/>
<polygon fill="#000000" stroke="#000000" points="443.4835,-273.3693 433.2601,-276.15 442.9862,-280.3516 443.4835,-273.3693"/>
<text text-anchor="middle" x="483.6197" y="-280.2" font-family="Times,serif" font-size="14.00" fill="#000000"> luminsty </text>
</g>
<!-- twostbd&#45;&gt;halt -->
<g id="edge50" class="edge">
<title>twostbd&#45;&gt;halt</title>
<path fill="none" stroke="#000000" d="M398.3908,-266.1163C402.8826,-223.6638 407.9069,-117.2285 356,-54 347.1719,-43.2464 334.2711,-35.284 322.0728,-29.6216"/>
<polygon fill="#000000" stroke="#000000" points="323.1042,-26.2568 312.532,-25.5641 320.3647,-32.6985 323.1042,-26.2568"/>
<text text-anchor="middle" x="421.7202" y="-147" font-family="Times,serif" font-size="14.00" fill="#000000"> closing </text>
</g>
<!-- armed&#45;&gt;waiting -->
<g id="edge30" class="edge">
<title>armed&#45;&gt;waiting</title>
<path fill="none" stroke="#000000" d="M716.1639,-113.1157C756.7094,-122.9818 820,-146.2813 820,-195.6 820,-728.4 820,-728.4 820,-728.4 820,-782.3021 645.5571,-805.244 557.5464,-813.3887"/>
<polygon fill="#000000" stroke="#000000" points="557.1627,-809.909 547.515,-814.2875 557.7875,-816.881 557.1627,-809.909"/>
<text text-anchor="middle" x="846.4355" y="-457.8" font-family="Times,serif" font-size="14.00" fill="#000000"> btnarma </text>
</g>
<!-- armed&#45;&gt;armed -->
<g id="edge25" class="edge">
<title>armed&#45;&gt;armed</title>
<path fill="none" stroke="#000000" d="M717.7706,-109.544C728.1157,-109.462 736.1653,-108.5474 736.1653,-106.8 736.1653,-105.6806 732.8618,-104.9029 727.7675,-104.467"/>
<polygon fill="#000000" stroke="#000000" points="727.906,-100.9698 717.7706,-104.056 727.6184,-107.9639 727.906,-100.9698"/>
<text text-anchor="middle" x="765.7074" y="-102.6" font-family="Times,serif" font-size="14.00" fill="#000000"> sldataack </text>
</g>
<!-- armed&#45;&gt;armed -->
<g id="edge26" class="edge">
<title>armed&#45;&gt;armed</title>
<path fill="none" stroke="#000000" d="M717.2502,-111.3923C751.4828,-113.487 795.2495,-111.9563 795.2495,-106.8 795.2495,-102.1473 759.6136,-100.4465 727.5024,-101.6978"/>
<polygon fill="#000000" stroke="#000000" points="727.064,-98.2151 717.2502,-102.2077 727.4118,-105.2065 727.064,-98.2151"/>
<text text-anchor="middle" x="826.7376" y="-102.6" font-family="Times,serif" font-size="14.00" fill="#000000"> newsldata </text>
</g>
<!-- armed&#45;&gt;armed -->
<g id="edge41" class="edge">
<title>armed&#45;&gt;armed</title>
<path fill="none" stroke="#000000" d="M716.7893,-112.4758C769.8607,-117.2642 858.2257,-115.3723 858.2257,-106.8 858.2257,-98.7468 780.2372,-96.5894 726.79,-100.3279"/>
<polygon fill="#000000" stroke="#000000" points="726.4799,-96.8414 716.7893,-101.1242 727.0356,-103.8193 726.4799,-96.8414"/>
<text text-anchor="middle" x="886.2292" y="-102.6" font-family="Times,serif" font-size="14.00" fill="#000000"> luminsty </text>
</g>
<!-- armed&#45;&gt;halt -->
<g id="edge52" class="edge">
<title>armed&#45;&gt;halt</title>
<path fill="none" stroke="#000000" d="M663.4961,-91.5681C646.6255,-79.2583 621.0644,-62.6108 596,-54 546.7232,-37.0711 395.8804,-25.1612 325.2327,-20.3587"/>
<polygon fill="#000000" stroke="#000000" points="325.2224,-16.8503 315.0112,-19.6756 324.7556,-23.8347 325.2224,-16.8503"/>
<text text-anchor="middle" x="654.7202" y="-58.2" font-family="Times,serif" font-size="14.00" fill="#000000"> closing </text>
</g>
</g>
</svg>
