<?xml version="1.0" encoding="UTF-8" standalone="no"?>
<!DOCTYPE svg PUBLIC "-//W3C//DTD SVG 1.1//EN"
 "http://www.w3.org/Graphics/SVG/1.1/DTD/svg11.dtd">
<!-- Generated by graphviz version 2.40.1 (20161225.0304)
 -->
<!-- Title: fsm Pages: 1 -->
<svg width="482pt" height="666pt"
 viewBox="0.00 0.00 481.66 665.60" xmlns="http://www.w3.org/2000/svg" xmlns:xlink="http://www.w3.org/1999/xlink">
<g id="graph0" class="graph" transform="scale(1 1) rotate(0) translate(4 661.6)">
<title>fsm</title>
<polygon fill="#ffffff" stroke="transparent" points="-4,4 -4,-661.6 477.6596,-661.6 477.6596,4 -4,4"/>
<!-- window -->
<g id="node1" class="node">
<title>window</title>
<ellipse fill="none" stroke="#000000" cx="236.2192" cy="-639.6" rx="42.2971" ry="18"/>
<text text-anchor="middle" x="236.2192" y="-635.4" font-family="Times,serif" font-size="14.00" fill="#000000">window</text>
</g>
<!-- loading -->
<g id="node2" class="node">
<title>loading</title>
<ellipse fill="none" stroke="#000000" cx="236.2192" cy="-550.8" rx="40.0089" ry="18"/>
<text text-anchor="middle" x="236.2192" y="-546.6" font-family="Times,serif" font-size="14.00" fill="#000000">loading</text>
</g>
<!-- window&#45;&gt;loading -->
<g id="edge1" class="edge">
<title>window&#45;&gt;loading</title>
<path fill="none" stroke="#000000" d="M236.2192,-621.2006C236.2192,-609.0949 236.2192,-593.0076 236.2192,-579.2674"/>
<polygon fill="#000000" stroke="#000000" points="239.7193,-578.872 236.2192,-568.872 232.7193,-578.8721 239.7193,-578.872"/>
<text text-anchor="middle" x="249.0551" y="-591" font-family="Times,serif" font-size="14.00" fill="#000000"> init </text>
</g>
<!-- waiting -->
<g id="node3" class="node">
<title>waiting</title>
<ellipse fill="none" stroke="#000000" cx="236.2192" cy="-462" rx="40.005" ry="18"/>
<text text-anchor="middle" x="236.2192" y="-457.8" font-family="Times,serif" font-size="14.00" fill="#000000">waiting</text>
</g>
<!-- loading&#45;&gt;waiting -->
<g id="edge2" class="edge">
<title>loading&#45;&gt;waiting</title>
<path fill="none" stroke="#000000" d="M236.2192,-532.4006C236.2192,-520.2949 236.2192,-504.2076 236.2192,-490.4674"/>
<polygon fill="#000000" stroke="#000000" points="239.7193,-490.072 236.2192,-480.072 232.7193,-490.0721 239.7193,-490.072"/>
<text text-anchor="middle" x="258.3791" y="-502.2" font-family="Times,serif" font-size="14.00" fill="#000000"> loaded </text>
</g>
<!-- waiting&#45;&gt;waiting -->
<g id="edge13" class="edge">
<title>waiting&#45;&gt;waiting</title>
<path fill="none" stroke="#000000" d="M271.9026,-470.248C284.2502,-470.3353 294.2218,-467.5859 294.2218,-462 294.2218,-458.0724 289.292,-455.5472 282.0727,-454.4243"/>
<polygon fill="#000000" stroke="#000000" points="282.1118,-450.9193 271.9026,-453.752 281.65,-457.9041 282.1118,-450.9193"/>
<text text-anchor="middle" x="322.2253" y="-457.8" font-family="Times,serif" font-size="14.00" fill="#000000"> luminsty </text>
</g>
<!-- marking -->
<g id="node4" class="node">
<title>marking</title>
<ellipse fill="none" stroke="#000000" cx="43.2192" cy="-373.2" rx="43.4396" ry="18"/>
<text text-anchor="middle" x="43.2192" y="-369" font-family="Times,serif" font-size="14.00" fill="#000000">marking</text>
</g>
<!-- waiting&#45;&gt;marking -->
<g id="edge3" class="edge">
<title>waiting&#45;&gt;marking</title>
<path fill="none" stroke="#000000" d="M196.3371,-459.8176C147.2155,-456.239 67.8738,-447.261 48.4562,-426 42.4286,-419.4001 40.2179,-410.2179 39.7966,-401.3592"/>
<polygon fill="#000000" stroke="#000000" points="43.2974,-401.3518 40.0026,-391.2824 36.2988,-401.2087 43.2974,-401.3518"/>
<text text-anchor="middle" x="77.6007" y="-413.4" font-family="Times,serif" font-size="14.00" fill="#000000"> btnarmw </text>
</g>
<!-- halt -->
<g id="node8" class="node">
<title>halt</title>
<ellipse fill="none" stroke="#000000" cx="141.2192" cy="-18" rx="27" ry="18"/>
<text text-anchor="middle" x="141.2192" y="-13.8" font-family="Times,serif" font-size="14.00" fill="#000000">halt</text>
</g>
<!-- waiting&#45;&gt;halt -->
<g id="edge17" class="edge">
<title>waiting&#45;&gt;halt</title>
<path fill="none" stroke="#000000" d="M271.5115,-453.1891C326.4581,-438.4257 426.2192,-406.9712 426.2192,-373.2 426.2192,-373.2 426.2192,-373.2 426.2192,-106.8 426.2192,-55.4466 255.4228,-30.3856 178.2691,-21.6846"/>
<polygon fill="#000000" stroke="#000000" points="178.3527,-18.173 168.0313,-20.5644 177.5913,-25.1314 178.3527,-18.173"/>
<text text-anchor="middle" x="449.9394" y="-235.8" font-family="Times,serif" font-size="14.00" fill="#000000"> closing </text>
</g>
<!-- marking&#45;&gt;waiting -->
<g id="edge9" class="edge">
<title>marking&#45;&gt;waiting</title>
<path fill="none" stroke="#000000" d="M69.1433,-387.6213C80.3624,-394.0239 93.5663,-401.7778 105.2192,-409.2 116.2408,-416.22 117.6775,-420.1221 129.3482,-426 149.0936,-435.9447 172.2134,-444.1207 191.889,-450.1534"/>
<polygon fill="#000000" stroke="#000000" points="190.9506,-453.5258 201.5337,-453.0257 192.9487,-446.817 190.9506,-453.5258"/>
<text text-anchor="middle" x="156.6547" y="-413.4" font-family="Times,serif" font-size="14.00" fill="#000000"> btnarmc </text>
</g>
<!-- marking&#45;&gt;marking -->
<g id="edge14" class="edge">
<title>marking&#45;&gt;marking</title>
<path fill="none" stroke="#000000" d="M81.7797,-381.4495C94.3941,-381.4069 104.4385,-378.657 104.4385,-373.2 104.4385,-369.363 99.4727,-366.8644 92.1393,-365.7043"/>
<polygon fill="#000000" stroke="#000000" points="92.0074,-362.1855 81.7797,-364.9505 91.4993,-369.167 92.0074,-362.1855"/>
<text text-anchor="middle" x="132.442" y="-369" font-family="Times,serif" font-size="14.00" fill="#000000"> luminsty </text>
</g>
<!-- onemark -->
<g id="node5" class="node">
<title>onemark</title>
<ellipse fill="none" stroke="#000000" cx="118.2192" cy="-284.4" rx="44.6453" ry="18"/>
<text text-anchor="middle" x="118.2192" y="-280.2" font-family="Times,serif" font-size="14.00" fill="#000000">onemark</text>
</g>
<!-- marking&#45;&gt;onemark -->
<g id="edge4" class="edge">
<title>marking&#45;&gt;onemark</title>
<path fill="none" stroke="#000000" d="M34.9625,-355.2336C31.2732,-344.3427 29.0855,-330.6243 35.7774,-320.4 43.2747,-308.9453 55.3034,-301.1142 67.8814,-295.7682"/>
<polygon fill="#000000" stroke="#000000" points="69.4067,-298.9343 77.5409,-292.1457 66.9487,-292.38 69.4067,-298.9343"/>
<text text-anchor="middle" x="66.9401" y="-324.6" font-family="Times,serif" font-size="14.00" fill="#000000"> btnportd1 </text>
</g>
<!-- marking&#45;&gt;onemark -->
<g id="edge5" class="edge">
<title>marking&#45;&gt;onemark</title>
<path fill="none" stroke="#000000" d="M70.7593,-359.3156C80.1416,-353.5131 90.0576,-346.044 97.2192,-337.2 103.1093,-329.9263 107.5179,-320.7919 110.7341,-312.1751"/>
<polygon fill="#000000" stroke="#000000" points="114.1372,-313.0335 113.9793,-302.4399 107.4965,-310.8198 114.1372,-313.0335"/>
<text text-anchor="middle" x="138.3321" y="-324.6" font-family="Times,serif" font-size="14.00" fill="#000000"> btnstbdd1 </text>
</g>
<!-- marking&#45;&gt;halt -->
<g id="edge18" class="edge">
<title>marking&#45;&gt;halt</title>
<path fill="none" stroke="#000000" d="M29.7943,-355.9187C17.837,-338.7669 2.2192,-311.2293 2.2192,-284.4 2.2192,-284.4 2.2192,-284.4 2.2192,-106.8 2.2192,-58.0941 63.5773,-34.9099 104.7611,-24.8342"/>
<polygon fill="#000000" stroke="#000000" points="105.7808,-28.1914 114.7472,-22.5475 104.2183,-21.368 105.7808,-28.1914"/>
<text text-anchor="middle" x="25.9394" y="-191.4" font-family="Times,serif" font-size="14.00" fill="#000000"> closing </text>
</g>
<!-- onemark&#45;&gt;waiting -->
<g id="edge10" class="edge">
<title>onemark&#45;&gt;waiting</title>
<path fill="none" stroke="#000000" d="M146.3608,-298.5288C155.8144,-304.3132 165.8244,-311.7078 173.2192,-320.4 188.598,-338.4769 212.6989,-398.883 226.1976,-434.6943"/>
<polygon fill="#000000" stroke="#000000" points="222.9285,-435.9451 229.7077,-444.0871 229.4856,-433.4946 222.9285,-435.9451"/>
<text text-anchor="middle" x="234.6547" y="-369" font-family="Times,serif" font-size="14.00" fill="#000000"> btnarmc </text>
</g>
<!-- onemark&#45;&gt;onemark -->
<g id="edge15" class="edge">
<title>onemark&#45;&gt;onemark</title>
<path fill="none" stroke="#000000" d="M158.0947,-292.648C170.8958,-292.5634 181.0415,-289.8141 181.0415,-284.4 181.0415,-280.5086 175.8002,-277.9939 168.0989,-276.8557"/>
<polygon fill="#000000" stroke="#000000" points="168.3157,-273.3624 158.0947,-276.152 167.8244,-280.3452 168.3157,-273.3624"/>
<text text-anchor="middle" x="209.045" y="-280.2" font-family="Times,serif" font-size="14.00" fill="#000000"> luminsty </text>
</g>
<!-- btnfade -->
<g id="node6" class="node">
<title>btnfade</title>
<ellipse fill="none" stroke="#000000" cx="200.2192" cy="-195.6" rx="39.9876" ry="18"/>
<text text-anchor="middle" x="200.2192" y="-191.4" font-family="Times,serif" font-size="14.00" fill="#000000">btnfade</text>
</g>
<!-- onemark&#45;&gt;btnfade -->
<g id="edge6" class="edge">
<title>onemark&#45;&gt;btnfade</title>
<path fill="none" stroke="#000000" d="M112.8506,-266.3555C110.7174,-255.4352 110.1262,-241.7134 116.7774,-231.6 125.0891,-218.9618 138.8786,-210.7406 152.8771,-205.4006"/>
<polygon fill="#000000" stroke="#000000" points="154.1785,-208.6555 162.537,-202.1451 151.9429,-202.0221 154.1785,-208.6555"/>
<text text-anchor="middle" x="147.9401" y="-235.8" font-family="Times,serif" font-size="14.00" fill="#000000"> btnportd2 </text>
</g>
<!-- onemark&#45;&gt;btnfade -->
<g id="edge7" class="edge">
<title>onemark&#45;&gt;btnfade</title>
<path fill="none" stroke="#000000" d="M148.7487,-270.9993C159.1663,-265.2458 170.1977,-257.6839 178.2192,-248.4 184.446,-241.1934 189.0949,-231.976 192.4743,-223.2658"/>
<polygon fill="#000000" stroke="#000000" points="195.7937,-224.3763 195.7668,-213.7815 189.1808,-222.0806 195.7937,-224.3763"/>
<text text-anchor="middle" x="220.3321" y="-235.8" font-family="Times,serif" font-size="14.00" fill="#000000"> btnstbdd2 </text>
</g>
<!-- onemark&#45;&gt;halt -->
<g id="edge19" class="edge">
<title>onemark&#45;&gt;halt</title>
<path fill="none" stroke="#000000" d="M112.1578,-266.2866C110.5434,-260.6255 109.0252,-254.313 108.2192,-248.4 107.2108,-241.0017 107.6475,-239.0447 108.2192,-231.6 113.3752,-164.4573 127.5197,-86.481 135.5165,-45.8569"/>
<polygon fill="#000000" stroke="#000000" points="138.9797,-46.3867 137.5022,-35.8954 132.1147,-45.0181 138.9797,-46.3867"/>
<text text-anchor="middle" x="142.9394" y="-147" font-family="Times,serif" font-size="14.00" fill="#000000"> closing </text>
</g>
<!-- btnfade&#45;&gt;waiting -->
<g id="edge11" class="edge">
<title>btnfade&#45;&gt;waiting</title>
<path fill="none" stroke="#000000" d="M229.6169,-208.0923C239.4329,-213.7868 249.3554,-221.5444 255.2192,-231.6 270.6539,-258.0679 271.1061,-348.3852 263.2192,-391.2 260.4655,-406.1488 254.6972,-422.0267 249.1965,-434.9495"/>
<polygon fill="#000000" stroke="#000000" points="245.9524,-433.6311 245.0966,-444.1913 252.3511,-436.4697 245.9524,-433.6311"/>
<text text-anchor="middle" x="294.6547" y="-324.6" font-family="Times,serif" font-size="14.00" fill="#000000"> btnarma </text>
</g>
<!-- armed -->
<g id="node7" class="node">
<title>armed</title>
<ellipse fill="none" stroke="#000000" cx="200.2192" cy="-106.8" rx="35.3315" ry="18"/>
<text text-anchor="middle" x="200.2192" y="-102.6" font-family="Times,serif" font-size="14.00" fill="#000000">armed</text>
</g>
<!-- btnfade&#45;&gt;armed -->
<g id="edge8" class="edge">
<title>btnfade&#45;&gt;armed</title>
<path fill="none" stroke="#000000" d="M200.2192,-177.2006C200.2192,-165.0949 200.2192,-149.0076 200.2192,-135.2674"/>
<polygon fill="#000000" stroke="#000000" points="203.7193,-134.872 200.2192,-124.872 196.7193,-134.8721 203.7193,-134.872"/>
<text text-anchor="middle" x="228.2094" y="-147" font-family="Times,serif" font-size="14.00" fill="#000000"> btnfaded </text>
</g>
<!-- armed&#45;&gt;waiting -->
<g id="edge12" class="edge">
<title>armed&#45;&gt;waiting</title>
<path fill="none" stroke="#000000" d="M233.8496,-112.1749C276.6841,-121.157 345.2192,-143.6462 345.2192,-195.6 345.2192,-373.2 345.2192,-373.2 345.2192,-373.2 345.2192,-409.3666 308.7037,-433.4155 277.9427,-447.258"/>
<polygon fill="#000000" stroke="#000000" points="276.4545,-444.0876 268.6277,-451.2284 279.1993,-450.527 276.4545,-444.0876"/>
<text text-anchor="middle" x="371.6547" y="-280.2" font-family="Times,serif" font-size="14.00" fill="#000000"> btnarma </text>
</g>
<!-- armed&#45;&gt;armed -->
<g id="edge16" class="edge">
<title>armed&#45;&gt;armed</title>
<path fill="none" stroke="#000000" d="M231.6116,-115.0253C243.528,-115.3426 253.3846,-112.6008 253.3846,-106.8 253.3846,-102.812 248.7258,-100.2698 241.9419,-99.1735"/>
<polygon fill="#000000" stroke="#000000" points="241.7974,-95.6593 231.6116,-98.5747 241.3923,-102.6476 241.7974,-95.6593"/>
<text text-anchor="middle" x="281.3881" y="-102.6" font-family="Times,serif" font-size="14.00" fill="#000000"> luminsty </text>
</g>
<!-- armed&#45;&gt;halt -->
<g id="edge20" class="edge">
<title>armed&#45;&gt;halt</title>
<path fill="none" stroke="#000000" d="M188.8434,-89.6785C180.0806,-76.4897 167.8344,-58.058 157.9546,-43.1881"/>
<polygon fill="#000000" stroke="#000000" points="160.6104,-40.8608 152.1612,-34.4685 154.78,-44.7346 160.6104,-40.8608"/>
<text text-anchor="middle" x="199.9394" y="-58.2" font-family="Times,serif" font-size="14.00" fill="#000000"> closing </text>
</g>
</g>
</svg>
