<?xml version="1.0" encoding="UTF-8" standalone="no"?>
<svg
   xmlns:osb="http://www.openswatchbook.org/uri/2009/osb"
   xmlns:dc="http://purl.org/dc/elements/1.1/"
   xmlns:cc="http://creativecommons.org/ns#"
   xmlns:rdf="http://www.w3.org/1999/02/22-rdf-syntax-ns#"
   xmlns:svg="http://www.w3.org/2000/svg"
   xmlns="http://www.w3.org/2000/svg"
   xmlns:xlink="http://www.w3.org/1999/xlink"
   xmlns:sodipodi="http://sodipodi.sourceforge.net/DTD/sodipodi-0.dtd"
   xmlns:inkscape="http://www.inkscape.org/namespaces/inkscape"
   width="24"
   height="24"
   viewBox="0 0 24 24"
   fill="none"
   stroke="currentColor"
   stroke-width="2"
   stroke-linecap="round"
   stroke-linejoin="round"
   id="svg2"
   version="1.1"
   inkscape:version="0.92.4 (5da689c313, 2019-01-14)"
   sodipodi:docname="Dashboard_Tactics__toggled_new.svg">
  <metadata
     id="metadata14">
    <rdf:RDF>
      <cc:Work
         rdf:about="">
        <dc:format>image/svg+xml</dc:format>
        <dc:type
           rdf:resource="http://purl.org/dc/dcmitype/StillImage" />
        <dc:title></dc:title>
      </cc:Work>
    </rdf:RDF>
  </metadata>
  <defs
     id="defs12">
    <linearGradient
       id="linearGradient3754"
       osb:paint="gradient">
      <stop
         style="stop-color:#000000;stop-opacity:1;"
         offset="0"
         id="stop3756" />
      <stop
         style="stop-color:#000000;stop-opacity:0;"
         offset="1"
         id="stop3758" />
    </linearGradient>
    <filter
       style="color-interpolation-filters:sRGB"
       inkscape:label="Greyscale"
       id="filter3873">
      <feColorMatrix
         values="0.21 0.72 0.072 0 0 0.21 0.72 0.072 0 0 0.21 0.72 0.072 0 0 0 0 0 1 0 "
         id="feColorMatrix3871" />
    </filter>
    <linearGradient
       y2="46.141598"
       x2="-26.434509"
       y1="46.015327"
       x1="-3.5798087"
       gradientTransform="matrix(-0.22705407,-0.03801349,-0.03121628,0.27649403,7.9151275,8.9086131)"
       gradientUnits="userSpaceOnUse"
       id="linearGradient3254"
       xlink:href="#linearGradient3349" />
    <linearGradient
       id="linearGradient3349">
      <stop
         style="stop-color:#ff0000;stop-opacity:1;"
         offset="0"
         id="stop3351" />
      <stop
         style="stop-color:#000e00;stop-opacity:1"
         offset="1"
         id="stop3353-6" />
    </linearGradient>
    <linearGradient
       y2="27.332016"
       x2="76.867836"
       y1="27.316193"
       x1="112.91203"
       gradientTransform="matrix(0.07351761,0.01230834,-0.01085811,0.09617422,3.7192246,17.147436)"
       gradientUnits="userSpaceOnUse"
       id="linearGradient3256"
       xlink:href="#linearGradient4150" />
    <linearGradient
       id="linearGradient4150">
      <stop
         id="stop4152"
         offset="0"
         style="stop-color:#ffbfbf;stop-opacity:1;" />
      <stop
         id="stop4154"
         offset="1"
         style="stop-color:#ffbfbf;stop-opacity:0;" />
    </linearGradient>
    <filter
       style="color-interpolation-filters:sRGB"
       inkscape:label="Greyscale"
       id="filter3877">
      <feColorMatrix
         values="0.21 0.72 0.072 0 0 0.21 0.72 0.072 0 0 0.21 0.72 0.072 0 0 0 0 0 1 0 "
         id="feColorMatrix3875" />
    </filter>
    <filter
       style="color-interpolation-filters:sRGB"
       inkscape:label="Greyscale"
       id="filter3869">
      <feColorMatrix
         values="0.21 0.72 0.072 0 0 0.21 0.72 0.072 0 0 0.21 0.72 0.072 0 0 0 0 0 1 0 "
         id="feColorMatrix3867" />
    </filter>
    <filter
       style="color-interpolation-filters:sRGB"
       inkscape:label="Greyscale"
       id="filter3893">
      <feColorMatrix
         values="0.21 0.72 0.072 0 0 0.21 0.72 0.072 0 0 0.21 0.72 0.072 0 0 0 0 0 1 0 "
         id="feColorMatrix3891" />
    </filter>
    <filter
       style="color-interpolation-filters:sRGB"
       inkscape:label="Greyscale"
       id="filter3901">
      <feColorMatrix
         values="0.21 0.72 0.072 0 0 0.21 0.72 0.072 0 0 0.21 0.72 0.072 0 0 0 0 0 1 0 "
         id="feColorMatrix3899" />
    </filter>
    <filter
       style="color-interpolation-filters:sRGB"
       inkscape:label="Greyscale"
       id="filter3897">
      <feColorMatrix
         values="0.21 0.72 0.072 0 0 0.21 0.72 0.072 0 0 0.21 0.72 0.072 0 0 0 0 0 1 0 "
         id="feColorMatrix3895" />
    </filter>
    <filter
       style="color-interpolation-filters:sRGB"
       inkscape:label="Greyscale"
       id="filter3905">
      <feColorMatrix
         values="0.21 0.72 0.072 0 0 0.21 0.72 0.072 0 0 0.21 0.72 0.072 0 0 0 0 0 1 0 "
         id="feColorMatrix3903" />
    </filter>
  </defs>
  <sodipodi:namedview
     pagecolor="#ffffff"
     bordercolor="#666666"
     borderopacity="1"
     objecttolerance="10"
     gridtolerance="10"
     guidetolerance="10"
     inkscape:pageopacity="0"
     inkscape:pageshadow="2"
     inkscape:window-width="2160"
     inkscape:window-height="1406"
     id="namedview10"
     showgrid="false"
     inkscape:zoom="39.333332"
     inkscape:cx="1.9539971"
     inkscape:cy="14.033898"
     inkscape:window-x="-11"
     inkscape:window-y="-11"
     inkscape:window-maximized="1"
     inkscape:current-layer="svg2" />
  <rect
     style="fill:#898989;fill-opacity:1;stroke:#898989;stroke-width:0;stroke-linejoin:miter;stroke-miterlimit:4;stroke-dasharray:none;stroke-opacity:1"
     id="rect4145"
     width="24.233389"
     height="24.233389"
     x="0.001538172"
     y="0.034063898" />
  <path
     style="opacity:0.61600001;fill:#666666;fill-opacity:1;fill-rule:evenodd;stroke:#0030f7;stroke-width:0.41100001;stroke-linecap:butt;stroke-linejoin:miter;stroke-miterlimit:4;stroke-dasharray:none;stroke-opacity:1;filter:url(#filter3877)"
     d="m 2.4866978,16.646227 7.0819044,-4.286294 -0.9013616,-1.309539 4.3784404,0.817062 -0.600907,4.31891 -1.0999,-1.460544 -7.1838194,4.390311 z"
     id="path4586"
     inkscape:connector-curvature="0"
     sodipodi:nodetypes="cccccccc"
     transform="matrix(1.1202375,0,0,1.1845226,-1.7168127,-0.99009233)" />
  <g
     id="g4588"
     transform="translate(-0.00110148,5.4924275)"
     style="fill:#999999;filter:url(#filter3873)">
    <g
       id="g4594"
       transform="translate(-3.3832599,-10.948605)"
       style="fill:#999999">
      <path
         id="path3391"
         d="m 9.8694177,16.0752 c 0.2278263,0.259484 2.5685903,3.184664 0.2043633,11.612731 -0.1137184,0.290697 -0.3670468,0.163815 -0.3670468,0.163815 L 8.5801679,27.673527 7.4055586,27.473405 c 0,0 -0.2720491,0.03893 -0.3171264,-0.278351 C 6.681024,18.331881 9.5664223,16.260277 9.8595021,16.073539 l 0.00991,0.0017 z"
         style="fill:#999999;fill-opacity:1;fill-rule:evenodd;stroke:none"
         inkscape:connector-curvature="0" />
      <path
         inkscape:connector-curvature="0"
         style="fill:#999999;fill-opacity:1;fill-rule:evenodd;stroke:none"
         d="m 9.8933939,16.139055 c 0.2716461,0.279054 2.7185031,3.219204 0.2129541,11.51144 -0.1224877,0.286296 -0.4059945,0.155157 -0.4059945,0.155157 L 8.5963674,27.595908 9.8933946,16.139056 Z"
         id="path3385" />
      <path
         inkscape:connector-curvature="0"
         style="fill:#999999;stroke:#333333;stroke-width:0.23858605;stroke-linecap:butt;stroke-linejoin:miter;stroke-miterlimit:4;stroke-dasharray:none;stroke-opacity:1"
         d="m 9.8837526,16.077599 c 0.2278274,0.259485 2.5685904,3.184666 0.2043634,11.612732 -0.1137183,0.290697 -0.3670469,0.163815 -0.3670469,0.163815 l -1.1265664,-0.17822 -1.174609,-0.200121 c 0,0 -0.2720492,0.03893 -0.3171265,-0.278352 C 6.6953589,18.334282 9.5807571,16.262678 9.8738369,16.075938 l 0.00991,0.0017 z"
         id="path3386" />
      <path
         inkscape:connector-curvature="0"
         style="fill:#999999;fill-opacity:1;stroke:#333333;stroke-width:0.19268551;stroke-linecap:round;stroke-linejoin:round;stroke-miterlimit:4;stroke-dasharray:none;stroke-opacity:1"
         id="path3520"
         d="M 8.4683834,21.64865 A 0.90233784,0.78478064 86.642405 0 0 9.018815,22.758561 0.90233784,0.78478064 86.642405 0 0 9.9821912,22.156661 0.90233784,0.78478064 86.642405 0 0 9.4530154,21.033472 0.90233784,0.78478064 86.642405 0 0 8.4779633,21.61059" />
    </g>
  </g>
  <path
     style="fill:#4e4e4e;fill-opacity:1;stroke-width:0.11743596"
     d="m 8.7438822,23.502821 c -0.13104,-0.142989 -0.112666,-0.16716 0.469191,-0.617235 l 0.437729,-0.33859 -0.08608,-0.164376 c -0.04735,-0.09041 -0.101574,-0.164377 -0.120514,-0.164377 -0.01894,0 -0.237622,0.165488 -0.48596,0.36775 -0.588269,0.479125 -0.570951,0.47131 -0.680056,0.306874 -0.09293,-0.140064 -0.0892,-0.144852 0.436192,-0.558594 0.434357,-0.342055 0.520144,-0.435376 0.475669,-0.51744 -0.02985,-0.05506 -0.789366,-1.239825 -1.687829,-2.632794 -0.898463,-1.39297 -1.661579,-2.58436 -1.695817,-2.647532 -0.04914,-0.09067 -0.03963,-0.131192 0.04516,-0.192415 0.05907,-0.04266 0.126034,-0.07756 0.148801,-0.07756 0.02277,0 0.938073,1.391903 2.034013,3.093117 1.595986,2.477431 1.9789378,3.109393 1.9238968,3.174885 -0.04758,0.05662 -0.04946,0.09352 -0.0061,0.119976 0.03545,0.02163 -0.08507,0.155476 -0.2777988,0.308522 -0.187221,0.148672 -0.449378,0.356906 -0.58257,0.462744 -0.239803,0.19055 -0.243201,0.191303 -0.347912,0.07705 z"
     id="path214"
     inkscape:connector-curvature="0" />
  <path
     style="fill:none;fill-rule:evenodd;stroke:#00cb00;stroke-width:0.80000001;stroke-linecap:butt;stroke-linejoin:miter;stroke-miterlimit:4;stroke-dasharray:none;stroke-opacity:1;filter:url(#filter3905)"
     d="m 11.105659,13.941536 1.221732,-7.565345 v 0"
     id="path4454"
     inkscape:connector-curvature="0"
     transform="rotate(20.1,16.455435,-2.1749589)" />
  <path
     style="fill:none;fill-rule:evenodd;stroke:#00cb00;stroke-width:0.80000001;stroke-linecap:butt;stroke-linejoin:miter;stroke-miterlimit:4;stroke-dasharray:none;stroke-opacity:1;filter:url(#filter3901)"
     d="m 19.013506,8.8332294 1.221732,-7.565345 v 0"
     id="path4454-2"
     inkscape:connector-curvature="0"
     transform="rotate(20.1,16.455435,-2.1749589)" />
  <path
     style="fill:none;fill-rule:evenodd;stroke:#fa0000;stroke-width:0.80000001;stroke-linecap:butt;stroke-linejoin:miter;stroke-miterlimit:4;stroke-dasharray:none;stroke-opacity:1;filter:url(#filter3897)"
     d="m 12.374381,6.4231808 7.894273,-5.2158592 v 0"
     id="path4471"
     inkscape:connector-curvature="0"
     transform="rotate(20.1,16.455435,-2.1749589)" />
  <path
     style="fill:#343434;fill-rule:evenodd;stroke:#fa0000;stroke-width:0.80000001;stroke-linecap:butt;stroke-linejoin:miter;stroke-miterlimit:4;stroke-dasharray:none;stroke-opacity:1;filter:url(#filter3893);fill-opacity:0.6156863"
     d="m 11.083742,13.934608 7.894273,-5.2158586 v 0"
     id="path4471-1"
     inkscape:connector-curvature="0"
     transform="rotate(20.1,16.455435,-2.1749589)" />
  <path
     style="fill:#4e4e4e;fill-opacity:1;stroke-width:0.11743596"
     d="m 21.744317,9.5558324 c -0.13104,-0.142989 -0.112666,-0.16716 0.469191,-0.617235 l 0.437729,-0.33859 -0.08608,-0.164376 c -0.04735,-0.09041 -0.101574,-0.164377 -0.120514,-0.164377 -0.01894,0 -0.237622,0.165488 -0.48596,0.36775 -0.588269,0.479125 -0.570951,0.47131 -0.680056,0.306874 -0.09293,-0.140064 -0.0892,-0.144852 0.436192,-0.558594 0.434357,-0.342055 0.520144,-0.435376 0.475669,-0.51744 -0.02985,-0.05506 -0.789366,-1.239825 -1.687829,-2.632794 -0.898463,-1.3929702 -1.661579,-2.5843602 -1.695817,-2.6475322 -0.04914,-0.09067 -0.03963,-0.131192 0.04516,-0.192415 0.05907,-0.04266 0.126034,-0.07756 0.148801,-0.07756 0.02277,0 0.938073,1.391903 2.034013,3.0931172 1.595986,2.477431 1.978937,3.109393 1.923896,3.174885 -0.04758,0.05662 -0.04946,0.09352 -0.0061,0.119976 0.03545,0.02163 -0.08507,0.155476 -0.277798,0.308522 -0.187221,0.148672 -0.449378,0.356906 -0.58257,0.462744 -0.239803,0.19055 -0.243201,0.191303 -0.347912,0.07705 z"
     id="path214-4"
     inkscape:connector-curvature="0" />
  <path
     style="fill:#4e4e4e;fill-opacity:1;stroke-width:0.14381833"
     d="m 9.7371338,4.6706403 c 0,-0.096541 -0.032359,-0.195528 -0.071909,-0.2199713 -0.03955,-0.024443 -0.071909,-0.1156403 -0.071909,-0.20266 0,-0.1499806 0.238662,-0.2148834 4.5842092,-1.2466507 3.253032,-0.7723703 4.599156,-1.0645139 4.635683,-1.0060624 0.02831,0.045304 0.04551,0.2205523 0.03823,0.3894411 -0.01272,0.2948897 -0.02474,0.310035 -0.303156,0.3818032 -0.498718,0.1285583 -0.541593,0.1459019 -0.541593,0.2190805 0,0.039219 -0.02887,0.053463 -0.06416,0.031654 -0.03529,-0.021809 -1.83574,0.3807699 -4.001003,0.8946207 -2.165264,0.5138508 -3.9970412,0.9342742 -4.0706165,0.9342742 -0.09389,0 -0.1337734,-0.052333 -0.1337734,-0.1755291 z"
     id="path296"
     inkscape:connector-curvature="0" />
  <path
     style="fill:#343434;fill-opacity:0.61568627;stroke-width:0.05084746"
     d="m 6.38083,22.527223 c -0.0074,-0.0074 -0.2638627,-0.05312 -0.5699152,-0.101608 -0.3060526,-0.04848 -0.8367558,-0.134478 -1.1793406,-0.191101 -0.3425847,-0.05662 -0.6597268,-0.1086 -0.7047601,-0.115506 -0.1049623,-0.0161 -0.232668,-0.123664 -0.279292,-0.235251 -0.026961,-0.06453 -0.043518,-0.306605 -0.063548,-0.929153 -0.02966,-0.921841 -2.128e-4,-2.228671 0.06967,-3.091892 0.2345832,-2.89765 0.8988656,-5.100843 1.9644618,-6.515434 0.1221338,-0.162134 0.201148,-0.245738 0.2239693,-0.236981 0.044405,0.01704 0.043933,-0.01388 -0.00287,-0.188263 -0.020643,-0.07691 -0.037668,-0.153026 -0.037834,-0.169154 -1.747e-4,-0.01698 0.1682711,-0.06906 0.400122,-0.123711 0.2202331,-0.05191 2.2762793,-0.539386 4.5689918,-1.0832724 2.292713,-0.5438867 4.180108,-0.9850384 4.194212,-0.9803372 0.03163,0.010544 0.195376,0.7104145 0.171427,0.732711 -0.0095,0.00884 -1.836325,0.4474417 -4.05963,0.9746776 -2.2233058,0.527236 -4.0460029,0.962195 -4.0504388,0.966575 -0.00444,0.0044 0.021154,0.06563 0.056866,0.1361 0.1477502,0.291571 0.329264,0.808926 0.4456459,1.270191 0.3619655,1.434604 0.4249729,3.236138 0.1829024,5.22961 l -0.043221,0.355932 -0.093754,-0.13983 C 7.4813226,17.952568 7.4808828,17.950664 7.5040013,17.786441 7.6121552,17.018165 7.6652417,15.389062 7.6077307,14.60323 7.5532278,13.858501 7.4399046,13.143072 7.2877908,12.583395 7.1359771,12.024822 6.8463055,11.30339 6.773839,11.30339 c -0.020314,0 -0.2028852,0.04001 -0.405715,0.0889 -0.20283,0.0489 -0.3775941,0.08346 -0.3883649,0.0768 -0.010771,-0.0067 -0.026804,-0.04821 -0.03563,-0.09234 l -0.016046,-0.08023 -0.079981,0.09877 c -0.1667539,0.20593 -0.4885047,0.721914 -0.6566277,1.05302 -0.7894245,1.554709 -1.246056,3.64691 -1.3731487,6.291514 -0.028463,0.592266 -0.030857,2.075719 -0.00432,2.67535 0.015105,0.341297 0.023142,0.392735 0.067776,0.433765 0.050047,0.04601 0.2137424,0.07588 2.120802,0.387058 0.2576576,0.04204 0.4882618,0.07016 0.5124537,0.06248 0.065857,-0.0209 0.1018182,-0.132606 0.3108051,-0.965433 0.2220025,-0.884694 0.3415571,-1.431061 0.4640942,-2.120919 0.048241,-0.27159 0.091576,-0.497665 0.096299,-0.502388 0.00472,-0.0047 0.045247,0.05038 0.090052,0.122461 l 0.081464,0.131049 -0.09123,0.498458 c -0.1900121,1.0382 -0.6196256,2.778759 -0.7210043,2.921132 -0.079293,0.111356 -0.3074039,0.201669 -0.3646874,0.144386 z"
     id="path308"
     inkscape:connector-curvature="0" />
  <path
     style="fill:#4e4e4e;fill-opacity:1;stroke-width:0.05084746"
     d="m 9.8349642,4.7525425 c -0.00932,-0.00932 -0.016949,-0.052516 -0.016949,-0.095986 0,-0.04347 -0.033963,-0.1473899 -0.075473,-0.2309322 -0.04151,-0.083542 -0.075832,-0.1590667 -0.076271,-0.1678321 -0.00116,-0.02317 0.2131491,-0.1107576 0.4186938,-0.1711198 0.499685,-0.1467423 4.326835,-1.066991 6.622882,-1.59249 0.813613,-0.1862128 1.7638,-0.3879609 1.925847,-0.4089052 l 0.133475,-0.017251 v 0.2399415 c 0,0.1524566 -0.01165,0.2558666 -0.03194,0.2836185 -0.01887,0.025807 -0.169763,0.083252 -0.368798,0.1404019 -0.197519,0.056715 -0.360458,0.1186481 -0.39391,0.1497245 -0.03138,0.02915 -0.119974,0.06461 -0.196881,0.078801 -0.414387,0.076464 -1.876866,0.4082955 -3.95339,0.8970115 -1.933799,0.4551255 -3.9183874,0.9119668 -3.9617213,0.9119668 -0.00474,0 -0.016245,-0.00763 -0.025567,-0.016949 z"
     id="path310"
     inkscape:connector-curvature="0" />
  <path
     style="fill:#4e4e4e;fill-opacity:1;stroke-width:0.05084746"
     d="M 6.347676,22.488586 C 6.3057268,22.47644 5.7336929,22.37925 5.0764895,22.272607 4.0129531,22.10003 3.8725271,22.071848 3.7992885,22.016289 3.7540314,21.981956 3.7050067,21.931451 3.6903447,21.904055 3.619893,21.772414 3.5877026,19.692846 3.6399873,18.650848 3.7513758,16.430947 4.1071274,14.559993 4.6976781,13.088284 4.9816385,12.380627 5.4759168,11.524298 5.77111,11.22858 L 5.909234,11.090211 5.880574,10.966047 C 5.839979,10.79018 5.843405,10.771513 5.921829,10.741282 c 0.096814,-0.03732 8.544146,-2.0386445 8.947714,-2.1198738 0.07712,-0.015522 0.08249,-0.011474 0.107167,0.080702 0.08178,0.3054842 0.130306,0.5509828 0.112119,0.5672326 -0.01145,0.010229 -0.295389,0.08393 -0.630983,0.1637816 -6.5237522,1.5522676 -7.4184237,1.7679516 -7.4469272,1.7952736 -0.013805,0.01323 0.020138,0.115509 0.083828,0.25259 0.2177441,0.468649 0.4356122,1.218655 0.5491231,1.890343 0.1180452,0.698519 0.1449193,1.033554 0.1585241,1.976293 0.013825,0.958017 -0.0053,1.399091 -0.098861,2.279827 L 7.648853,18.14219 7.584857,18.04801 C 7.521108,17.9542 7.520975,17.9528 7.550433,17.685814 7.623633,17.022376 7.642315,16.594976 7.643272,15.561863 7.6441169,14.652475 7.6365088,14.406655 7.5980346,14.1 7.5297983,13.556128 7.4395293,13.053232 7.3414529,12.670564 7.1934233,12.092992 6.8910439,11.320062 6.7993557,11.284878 c -0.022179,-0.0085 -0.2015237,0.02084 -0.3985446,0.06523 -0.4169593,0.09393 -0.4216573,0.09433 -0.4221685,0.03591 -2.136e-4,-0.02447 -0.010956,-0.0612 -0.023872,-0.08162 -0.036282,-0.05736 -0.1046328,0.01796 -0.3451538,0.380345 -0.2928229,0.441187 -0.468396,0.764436 -0.6711473,1.235653 -0.6558993,1.524383 -1.0226402,3.356778 -1.1477627,5.734714 -0.038312,0.728107 -0.01946,3.024153 0.025795,3.141647 0.026115,0.0678 0.054172,0.08902 0.1587911,0.120088 0.1150748,0.03417 1.817067,0.324095 2.3280841,0.396572 0.2476774,0.03513 0.2614566,0.02839 0.3329717,-0.162769 0.1193817,-0.31911 0.4964482,-1.916051 0.6522791,-2.762515 0.1143186,-0.62097 0.1138767,-0.619757 0.1830618,-0.502497 0.044323,0.07512 0.049552,0.108682 0.031318,0.200999 -0.012039,0.06095 -0.063172,0.322473 -0.1136288,0.581159 -0.2073003,1.06281 -0.5559745,2.467658 -0.664584,2.677686 -0.021265,0.04112 -0.082948,0.09281 -0.1436351,0.120364 -0.1178822,0.05352 -0.1248326,0.0542 -0.2334834,0.02274 z"
     id="path312"
     inkscape:connector-curvature="0" />
  <path
     style="fill:#4e4e4e;fill-opacity:1;stroke-width:0.05084746"
     d="m 9.8603879,4.701695 c -0.00932,-0.00932 -0.016949,-0.043318 -0.016949,-0.075546 0,-0.032228 -0.028516,-0.1230777 -0.06337,-0.2018873 -0.034853,-0.07881 -0.057619,-0.1525953 -0.05059,-0.1639685 0.041729,-0.067519 1.1917651,-0.3638935 4.0292131,-1.0383647 2.41829,-0.5748358 3.879192,-0.9075177 4.588983,-1.0450198 0.153814,-0.029797 0.305403,-0.059509 0.336865,-0.066027 0.05313,-0.011006 0.0572,-0.00301 0.0572,0.1122041 0,0.06823 -0.0072,0.1766846 -0.01603,0.2410101 l -0.01603,0.1169555 -0.320834,0.1063849 c -0.176458,0.058512 -0.372317,0.1329225 -0.435241,0.1653575 -0.06292,0.032435 -0.280296,0.093479 -0.48305,0.1356529 -0.468833,0.09752 -2.135049,0.4789415 -4.169492,0.9544584 -2.124716,0.4966164 -3.343616,0.775739 -3.387575,0.775739 -0.019884,0 -0.043781,-0.00763 -0.053103,-0.016949 z"
     id="path314"
     inkscape:connector-curvature="0" />
  <path
     style="fill:#898989;fill-opacity:1;stroke-width:0.05084746"
     d="M 15.26974,9.1412189 C 15.17854,9.0880419 15.133843,9.0439049 15.122277,8.9955933 15.043647,8.6671457 14.997407,8.5322037 14.9635,8.5322037 c -0.02061,0 -0.03358,-0.011655 -0.02883,-0.0259 0.0047,-0.014245 0.683562,-1.2325582 1.508474,-2.7073623 1.192674,-2.1322991 1.511936,-2.6847794 1.558899,-2.6976603 0.03248,-0.00891 0.06882,-0.041869 0.08075,-0.073243 0.01722,-0.045284 0.06532,-0.0685 0.233315,-0.1126026 0.116395,-0.030557 0.279397,-0.077722 0.362228,-0.1048112 0.08283,-0.027089 0.152319,-0.046473 0.154419,-0.043074 0.0021,0.0034 0.02847,0.041914 0.05859,0.08559 l 0.05477,0.079411 -1.760034,3.142474 c -0.968019,1.7283606 -1.765755,3.1424793 -1.772746,3.1424856 -0.007,6.6e-6 -0.0716,-0.034325 -0.14358,-0.076292 z"
     id="path4841"
     inkscape:connector-curvature="0" />
  <path
     style="fill:#898989;fill-opacity:1;stroke-width:0.05084746"
     d="m 5.6954648,11.001673 c -0.066218,-0.03681 -0.1205615,-0.0762 -0.1207627,-0.08753 -3.704e-4,-0.02085 3.6782131,-6.5980809 3.7108727,-6.634962 0.029823,-0.033678 0.2240951,0.093982 0.2893469,0.1901359 0.033889,0.049938 0.069652,0.1492185 0.079472,0.2206229 0.013219,0.096117 0.035528,0.144753 0.085918,0.1873151 L 9.8083749,4.9347459 8.2561728,7.7029991 6.7039706,10.471252 6.262997,10.580427 c -0.2425355,0.06005 -0.4532294,0.12143 -0.4682087,0.136409 -0.019364,0.01936 -0.017969,0.07209 0.00483,0.182462 0.017634,0.08538 0.028503,0.158394 0.024154,0.162265 -0.00435,0.0039 -0.062086,-0.02308 -0.1283042,-0.05989 z"
     id="path4843"
     inkscape:connector-curvature="0" />
  <path
     style="fill:#747474;fill-opacity:1;stroke-width:0.05084746"
     d="M 15.2708,9.0970371 C 15.181693,9.035056 15.165618,9.0063379 15.114191,8.817252 15.082671,8.7013592 15.03991,8.5806356 15.019166,8.5489777 14.983415,8.4944143 15.000637,8.457073 15.34997,7.831726 c 2.440267,-4.3683676 2.550473,-4.5605016 2.710528,-4.7255615 0.09647,-0.099488 0.135217,-0.1179615 0.422515,-0.2014553 0.294542,-0.085599 0.319468,-0.08906 0.362288,-0.050308 0.02529,0.022888 0.04599,0.055127 0.04599,0.071641 0,0.016514 -0.230129,0.4409062 -0.511398,0.9430936 -2.426911,4.3330985 -2.972542,5.2988603 -2.993129,5.2978166 -0.0092,-4.652e-4 -0.06134,-0.031926 -0.115959,-0.069915 z"
     id="path4845"
     inkscape:connector-curvature="0" />
  <path
     style="fill:#747474;fill-opacity:1;stroke-width:0.05084746"
     d="m 5.7472175,10.685671 c 0,-0.01972 2.6251133,-4.7213851 3.3351174,-5.9733006 l 0.2270474,-0.4003416 0.068494,0.035638 c 0.1188801,0.061854 0.1873843,0.1591328 0.236308,0.3355666 0.026087,0.094079 0.06868,0.1948766 0.094651,0.2239946 0.046695,0.052354 0.030361,0.082981 -1.4723496,2.7605691 -0.8357628,1.4891949 -1.5289586,2.7224039 -1.5404351,2.7404649 -0.011476,0.01806 -0.2096374,0.08194 -0.4403578,0.141962 -0.2307203,0.06002 -0.4395127,0.117969 -0.463983,0.12878 -0.02447,0.01081 -0.044492,0.01381 -0.044492,0.0067 z"
     id="path4847"
     inkscape:connector-curvature="0" />
</svg>
