<?xml version="1.0" encoding="UTF-8" standalone="no"?>
<!DOCTYPE svg PUBLIC "-//W3C//DTD SVG 1.1//EN"
 "http://www.w3.org/Graphics/SVG/1.1/DTD/svg11.dtd">
<!-- Generated by graphviz version 2.40.1 (20161225.0304)
 -->
<!-- Title: fsm Pages: 1 -->
<svg width="407pt" height="754pt"
 viewBox="0.00 0.00 406.52 754.40" xmlns="http://www.w3.org/2000/svg" xmlns:xlink="http://www.w3.org/1999/xlink">
<g id="graph0" class="graph" transform="scale(1 1) rotate(0) translate(4 750.4)">
<title>fsm</title>
<polygon fill="#ffffff" stroke="transparent" points="-4,4 -4,-750.4 402.5177,-750.4 402.5177,4 -4,4"/>
<!-- window -->
<g id="node1" class="node">
<title>window</title>
<ellipse fill="none" stroke="#000000" cx="240.0773" cy="-728.4" rx="42.2971" ry="18"/>
<text text-anchor="middle" x="240.0773" y="-724.2" font-family="Times,serif" font-size="14.00" fill="#000000">window</text>
</g>
<!-- loading -->
<g id="node2" class="node">
<title>loading</title>
<ellipse fill="none" stroke="#000000" cx="240.0773" cy="-639.6" rx="40.0089" ry="18"/>
<text text-anchor="middle" x="240.0773" y="-635.4" font-family="Times,serif" font-size="14.00" fill="#000000">loading</text>
</g>
<!-- window&#45;&gt;loading -->
<g id="edge1" class="edge">
<title>window&#45;&gt;loading</title>
<path fill="none" stroke="#000000" d="M240.0773,-710.0006C240.0773,-697.8949 240.0773,-681.8076 240.0773,-668.0674"/>
<polygon fill="#000000" stroke="#000000" points="243.5774,-667.672 240.0773,-657.672 236.5774,-667.6721 243.5774,-667.672"/>
<text text-anchor="middle" x="252.9132" y="-679.8" font-family="Times,serif" font-size="14.00" fill="#000000"> init </text>
</g>
<!-- initga -->
<g id="node3" class="node">
<title>initga</title>
<ellipse fill="none" stroke="#000000" cx="240.0773" cy="-550.8" rx="33.0624" ry="18"/>
<text text-anchor="middle" x="240.0773" y="-546.6" font-family="Times,serif" font-size="14.00" fill="#000000">initga</text>
</g>
<!-- loading&#45;&gt;initga -->
<g id="edge2" class="edge">
<title>loading&#45;&gt;initga</title>
<path fill="none" stroke="#000000" d="M240.0773,-621.2006C240.0773,-609.0949 240.0773,-593.0076 240.0773,-579.2674"/>
<polygon fill="#000000" stroke="#000000" points="243.5774,-578.872 240.0773,-568.872 236.5774,-578.8721 243.5774,-578.872"/>
<text text-anchor="middle" x="262.2372" y="-591" font-family="Times,serif" font-size="14.00" fill="#000000"> loaded </text>
</g>
<!-- getid -->
<g id="node4" class="node">
<title>getid</title>
<ellipse fill="none" stroke="#000000" cx="240.0773" cy="-462" rx="30.1958" ry="18"/>
<text text-anchor="middle" x="240.0773" y="-457.8" font-family="Times,serif" font-size="14.00" fill="#000000">getid</text>
</g>
<!-- initga&#45;&gt;getid -->
<g id="edge3" class="edge">
<title>initga&#45;&gt;getid</title>
<path fill="none" stroke="#000000" d="M240.0773,-532.4006C240.0773,-520.2949 240.0773,-504.2076 240.0773,-490.4674"/>
<polygon fill="#000000" stroke="#000000" points="243.5774,-490.072 240.0773,-480.072 236.5774,-490.0721 243.5774,-490.072"/>
<text text-anchor="middle" x="259.9132" y="-502.2" font-family="Times,serif" font-size="14.00" fill="#000000"> initok </text>
</g>
<!-- hasid -->
<g id="node5" class="node">
<title>hasid</title>
<ellipse fill="none" stroke="#000000" cx="240.0773" cy="-373.2" rx="31.339" ry="18"/>
<text text-anchor="middle" x="240.0773" y="-369" font-family="Times,serif" font-size="14.00" fill="#000000">hasid</text>
</g>
<!-- getid&#45;&gt;hasid -->
<g id="edge4" class="edge">
<title>getid&#45;&gt;hasid</title>
<path fill="none" stroke="#000000" d="M240.0773,-443.6006C240.0773,-431.4949 240.0773,-415.4076 240.0773,-401.6674"/>
<polygon fill="#000000" stroke="#000000" points="243.5774,-401.272 240.0773,-391.272 236.5774,-401.2721 243.5774,-401.272"/>
<text text-anchor="middle" x="256.7975" y="-413.4" font-family="Times,serif" font-size="14.00" fill="#000000"> setid </text>
</g>
<!-- getack -->
<g id="node6" class="node">
<title>getack</title>
<ellipse fill="none" stroke="#000000" cx="240.0773" cy="-284.4" rx="36.4761" ry="18"/>
<text text-anchor="middle" x="240.0773" y="-280.2" font-family="Times,serif" font-size="14.00" fill="#000000">getack</text>
</g>
<!-- hasid&#45;&gt;getack -->
<g id="edge5" class="edge">
<title>hasid&#45;&gt;getack</title>
<path fill="none" stroke="#000000" d="M223.3879,-357.8985C218.1209,-352.0039 212.9592,-344.8395 210.2021,-337.2 207.6675,-330.1767 207.6675,-327.4233 210.2021,-320.4 211.6909,-316.2746 213.8809,-312.2879 216.4101,-308.5648"/>
<polygon fill="#000000" stroke="#000000" points="219.3739,-310.4553 222.7565,-300.4149 213.851,-306.1544 219.3739,-310.4553"/>
<text text-anchor="middle" x="230.5149" y="-324.6" font-family="Times,serif" font-size="14.00" fill="#000000"> nocfg </text>
</g>
<!-- hasid&#45;&gt;getack -->
<g id="edge6" class="edge">
<title>hasid&#45;&gt;getack</title>
<path fill="none" stroke="#000000" d="M245.4392,-355.4175C246.9274,-349.6607 248.3374,-343.2104 249.0773,-337.2 249.9896,-329.7893 249.9896,-327.8107 249.0773,-320.4 248.7605,-317.8264 248.3208,-315.1721 247.8048,-312.5262"/>
<polygon fill="#000000" stroke="#000000" points="251.1664,-311.5246 245.5341,-302.5509 244.341,-313.0783 251.1664,-311.5246"/>
<text text-anchor="middle" x="271.8445" y="-324.6" font-family="Times,serif" font-size="14.00" fill="#000000"> hascfg </text>
</g>
<!-- getack&#45;&gt;getack -->
<g id="edge12" class="edge">
<title>getack&#45;&gt;getack</title>
<path fill="none" stroke="#000000" d="M272.3724,-292.6319C284.4077,-292.9018 294.3146,-290.1578 294.3146,-284.4 294.3146,-280.4415 289.6321,-277.9075 282.7946,-276.7981"/>
<polygon fill="#000000" stroke="#000000" points="282.5654,-273.2779 272.3724,-276.1681 282.143,-280.2652 282.5654,-273.2779"/>
<text text-anchor="middle" x="322.3181" y="-280.2" font-family="Times,serif" font-size="14.00" fill="#000000"> luminsty </text>
</g>
<!-- waiting -->
<g id="node7" class="node">
<title>waiting</title>
<ellipse fill="none" stroke="#000000" cx="120.0773" cy="-195.6" rx="40.005" ry="18"/>
<text text-anchor="middle" x="120.0773" y="-191.4" font-family="Times,serif" font-size="14.00" fill="#000000">waiting</text>
</g>
<!-- getack&#45;&gt;waiting -->
<g id="edge7" class="edge">
<title>getack&#45;&gt;waiting</title>
<path fill="none" stroke="#000000" d="M219.721,-269.3363C200.3584,-255.008 171.026,-233.302 149.1938,-217.1462"/>
<polygon fill="#000000" stroke="#000000" points="151.0573,-214.1711 140.9369,-211.0361 146.8934,-219.798 151.0573,-214.1711"/>
<text text-anchor="middle" x="227.2274" y="-235.8" font-family="Times,serif" font-size="14.00" fill="#000000"> mrkdataack </text>
</g>
<!-- halt -->
<g id="node9" class="node">
<title>halt</title>
<ellipse fill="none" stroke="#000000" cx="286.0773" cy="-18" rx="27" ry="18"/>
<text text-anchor="middle" x="286.0773" y="-13.8" font-family="Times,serif" font-size="14.00" fill="#000000">halt</text>
</g>
<!-- getack&#45;&gt;halt -->
<g id="edge15" class="edge">
<title>getack&#45;&gt;halt</title>
<path fill="none" stroke="#000000" d="M268.8246,-273.0587C292.7537,-261.8938 325.2222,-242.3188 340.0773,-213.6 369.6709,-156.3879 329.4451,-81.1214 304.0373,-42.7752"/>
<polygon fill="#000000" stroke="#000000" points="306.7801,-40.5848 298.2559,-34.2929 300.9958,-44.5273 306.7801,-40.5848"/>
<text text-anchor="middle" x="374.7975" y="-147" font-family="Times,serif" font-size="14.00" fill="#000000"> closing </text>
</g>
<!-- waiting&#45;&gt;waiting -->
<g id="edge11" class="edge">
<title>waiting&#45;&gt;waiting</title>
<path fill="none" stroke="#000000" d="M159.1133,-199.6998C169.8642,-199.5018 178.0798,-198.1352 178.0798,-195.6 178.0798,-193.9759 174.7082,-192.8314 169.4582,-192.1665"/>
<polygon fill="#000000" stroke="#000000" points="169.3177,-188.6502 159.1133,-191.5002 168.8677,-195.6358 169.3177,-188.6502"/>
<text text-anchor="middle" x="217.7376" y="-191.4" font-family="Times,serif" font-size="14.00" fill="#000000"> mrkdstopack </text>
</g>
<!-- waiting&#45;&gt;waiting -->
<g id="edge13" class="edge">
<title>waiting&#45;&gt;waiting</title>
<path fill="none" stroke="#000000" d="M157.5964,-202.2709C199.5444,-205.7299 257.3954,-203.5063 257.3954,-195.6 257.3954,-188.3114 208.2305,-185.8522 167.684,-188.2225"/>
<polygon fill="#000000" stroke="#000000" points="167.3273,-184.7388 157.5964,-188.9291 167.8165,-191.7217 167.3273,-184.7388"/>
<text text-anchor="middle" x="285.3989" y="-191.4" font-family="Times,serif" font-size="14.00" fill="#000000"> luminsty </text>
</g>
<!-- running -->
<g id="node8" class="node">
<title>running</title>
<ellipse fill="none" stroke="#000000" cx="41.0773" cy="-106.8" rx="41.1548" ry="18"/>
<text text-anchor="middle" x="41.0773" y="-102.6" font-family="Times,serif" font-size="14.00" fill="#000000">running</text>
</g>
<!-- waiting&#45;&gt;running -->
<g id="edge8" class="edge">
<title>waiting&#45;&gt;running</title>
<path fill="none" stroke="#000000" d="M86.3624,-185.6765C73.0676,-180.0968 58.878,-171.7426 49.9917,-159.6 44.8395,-152.5598 42.2668,-143.586 41.0747,-135.0422"/>
<polygon fill="#000000" stroke="#000000" points="44.5551,-134.6623 40.2248,-124.9928 37.58,-135.2522 44.5551,-134.6623"/>
<text text-anchor="middle" x="72.6201" y="-147" font-family="Times,serif" font-size="14.00" fill="#000000"> actvrte </text>
</g>
<!-- waiting&#45;&gt;halt -->
<g id="edge16" class="edge">
<title>waiting&#45;&gt;halt</title>
<path fill="none" stroke="#000000" d="M155.0714,-186.7451C186.8705,-176.8866 232.721,-157.8187 259.0773,-124.8 276.9768,-102.3759 283.1697,-69.5558 285.2295,-46.2256"/>
<polygon fill="#000000" stroke="#000000" points="288.7215,-46.4611 285.9123,-36.2455 281.7378,-45.9832 288.7215,-46.4611"/>
<text text-anchor="middle" x="300.7975" y="-102.6" font-family="Times,serif" font-size="14.00" fill="#000000"> closing </text>
</g>
<!-- running&#45;&gt;waiting -->
<g id="edge10" class="edge">
<title>running&#45;&gt;waiting</title>
<path fill="none" stroke="#000000" d="M67.7571,-120.5957C77.2672,-126.4749 87.4906,-134.0179 95.0773,-142.8 101.4362,-150.1608 106.5393,-159.4168 110.4352,-168.1151"/>
<polygon fill="#000000" stroke="#000000" points="107.2823,-169.651 114.3232,-177.5678 113.7561,-166.9882 107.2823,-169.651"/>
<text text-anchor="middle" x="130.9602" y="-147" font-family="Times,serif" font-size="14.00" fill="#000000"> noroute </text>
</g>
<!-- running&#45;&gt;running -->
<g id="edge9" class="edge">
<title>running&#45;&gt;running</title>
<path fill="none" stroke="#000000" d="M81.1145,-110.8945C91.928,-110.6785 100.1547,-109.3137 100.1547,-106.8 100.1547,-105.1504 96.6118,-103.9956 91.1199,-103.3355"/>
<polygon fill="#000000" stroke="#000000" points="91.3148,-99.8409 81.1145,-102.7055 90.8748,-106.8271 91.3148,-99.8409"/>
<text text-anchor="middle" x="138.2508" y="-102.6" font-family="Times,serif" font-size="14.00" fill="#000000"> newmrkdata </text>
</g>
<!-- running&#45;&gt;running -->
<g id="edge14" class="edge">
<title>running&#45;&gt;running</title>
<path fill="none" stroke="#000000" d="M79.3726,-113.5544C120.6584,-116.8933 176.3469,-114.6418 176.3469,-106.8 176.3469,-99.5862 129.2201,-97.1032 89.5319,-99.3511"/>
<polygon fill="#000000" stroke="#000000" points="89.1105,-95.8716 79.3726,-100.0456 89.5881,-102.8553 89.1105,-95.8716"/>
<text text-anchor="middle" x="204.3504" y="-102.6" font-family="Times,serif" font-size="14.00" fill="#000000"> luminsty </text>
</g>
<!-- running&#45;&gt;halt -->
<g id="edge17" class="edge">
<title>running&#45;&gt;halt</title>
<path fill="none" stroke="#000000" d="M73.1068,-95.191C119.6069,-78.337 205.4025,-47.2405 252.6668,-30.1096"/>
<polygon fill="#000000" stroke="#000000" points="253.9308,-33.3744 262.1396,-26.6762 251.5454,-26.7933 253.9308,-33.3744"/>
<text text-anchor="middle" x="209.7975" y="-58.2" font-family="Times,serif" font-size="14.00" fill="#000000"> closing </text>
</g>
</g>
</svg>
