<?xml version="1.0" encoding="UTF-8" standalone="no"?>
<!DOCTYPE svg PUBLIC "-//W3C//DTD SVG 1.1//EN"
 "http://www.w3.org/Graphics/SVG/1.1/DTD/svg11.dtd">
<!-- Generated by graphviz version 2.40.1 (20161225.0304)
 -->
<!-- Title: fsm Pages: 1 -->
<svg width="850pt" height="1110pt"
 viewBox="0.00 0.00 850.00 1110.20" xmlns="http://www.w3.org/2000/svg" xmlns:xlink="http://www.w3.org/1999/xlink">
<g id="graph0" class="graph" transform="scale(1 1) rotate(0) translate(4 1106.2)">
<title>fsm</title>
<polygon fill="#ffffff" stroke="transparent" points="-4,4 -4,-1106.2 846,-1106.2 846,4 -4,4"/>
<g id="clust1" class="cluster">
<title>cluster0</title>
<path fill="none" stroke="#000000" d="M20,-8C20,-8 822,-8 822,-8 828,-8 834,-14 834,-20 834,-20 834,-502.6 834,-502.6 834,-508.6 828,-514.6 822,-514.6 822,-514.6 20,-514.6 20,-514.6 14,-514.6 8,-508.6 8,-502.6 8,-502.6 8,-20 8,-20 8,-14 14,-8 20,-8"/>
<text text-anchor="middle" x="421" y="-498" font-family="Times,serif" font-size="14.00" fill="#000000">instrustat</text>
</g>
<!-- handshake -->
<g id="node1" class="node">
<title>handshake</title>
<ellipse fill="none" stroke="#000000" cx="282" cy="-1084.2" rx="51.59" ry="18"/>
<text text-anchor="middle" x="282" y="-1080" font-family="Times,serif" font-size="14.00" fill="#000000">handshake</text>
</g>
<!-- no_request -->
<g id="node3" class="node">
<title>no_request</title>
<ellipse fill="none" stroke="#000000" cx="282" cy="-995.4" rx="53.3129" ry="18"/>
<text text-anchor="middle" x="282" y="-991.2" font-family="Times,serif" font-size="14.00" fill="#000000">no_request</text>
</g>
<!-- handshake&#45;&gt;no_request -->
<g id="edge1" class="edge">
<title>handshake&#45;&gt;no_request</title>
<path fill="none" stroke="#000000" d="M282,-1065.8006C282,-1053.6949 282,-1037.6076 282,-1023.8674"/>
<polygon fill="#000000" stroke="#000000" points="285.5001,-1023.472 282,-1013.472 278.5001,-1023.4721 285.5001,-1023.472"/>
<text text-anchor="middle" x="316.9881" y="-1035.6" font-family="Times,serif" font-size="14.00" fill="#000000"> constructor </text>
</g>
<!-- msg -->
<g id="node2" class="node">
<title>msg</title>
<ellipse fill="none" stroke="#000000" cx="477" cy="-1084.2" rx="27.2661" ry="18"/>
<text text-anchor="middle" x="477" y="-1080" font-family="Times,serif" font-size="14.00" fill="#000000">msg</text>
</g>
<!-- msg&#45;&gt;no_request -->
<g id="edge2" class="edge">
<title>msg&#45;&gt;no_request</title>
<path fill="none" stroke="#000000" d="M451.573,-1077.1859C430.8995,-1070.9802 401.3147,-1060.9384 377.2188,-1048.2 365.9581,-1042.247 364.8921,-1038.0034 354,-1031.4 344.2097,-1025.4646 333.3122,-1019.6414 323.0187,-1014.4664"/>
<polygon fill="#000000" stroke="#000000" points="324.301,-1011.1963 313.7844,-1009.9114 321.2044,-1017.4741 324.301,-1011.1963"/>
<text text-anchor="middle" x="391.3906" y="-1035.6" font-family="Times,serif" font-size="14.00" fill="#000000"> poll </text>
</g>
<!-- served -->
<g id="node4" class="node">
<title>served</title>
<ellipse fill="none" stroke="#000000" cx="413" cy="-882.6" rx="36.4761" ry="18"/>
<text text-anchor="middle" x="413" y="-878.4" font-family="Times,serif" font-size="14.00" fill="#000000">served</text>
</g>
<!-- msg&#45;&gt;served -->
<g id="edge5" class="edge">
<title>msg&#45;&gt;served</title>
<path fill="none" stroke="#000000" d="M464.6948,-1067.96C454.8817,-1054.1741 441.6001,-1033.4851 434.2188,-1013.4 421.804,-979.6185 416.6385,-938.277 414.4985,-911.2317"/>
<polygon fill="#000000" stroke="#000000" points="417.9667,-910.6547 413.7752,-900.9242 410.9839,-911.1447 417.9667,-910.6547"/>
<text text-anchor="middle" x="448.3906" y="-991.2" font-family="Times,serif" font-size="14.00" fill="#000000"> poll </text>
</g>
<!-- acknowledged -->
<g id="node5" class="node">
<title>acknowledged</title>
<ellipse fill="none" stroke="#000000" cx="385" cy="-753" rx="66.619" ry="18"/>
<text text-anchor="middle" x="385" y="-748.8" font-family="Times,serif" font-size="14.00" fill="#000000">acknowledged</text>
</g>
<!-- msg&#45;&gt;acknowledged -->
<g id="edge8" class="edge">
<title>msg&#45;&gt;acknowledged</title>
<path fill="none" stroke="#000000" d="M477.2876,-1066.0929C478.1035,-1005.4339 479.4594,-811.9096 464,-789 458.7374,-781.2012 451.3441,-775.0652 443.1723,-770.2449"/>
<polygon fill="#000000" stroke="#000000" points="444.551,-767.0171 434.0633,-765.5142 441.3247,-773.2293 444.551,-767.0171"/>
<text text-anchor="middle" x="491.3906" y="-938.4" font-family="Times,serif" font-size="14.00" fill="#000000"> poll </text>
</g>
<!-- request -->
<g id="node6" class="node">
<title>request</title>
<ellipse fill="none" stroke="#000000" cx="484" cy="-664.2" rx="38.842" ry="18"/>
<text text-anchor="middle" x="484" y="-660" font-family="Times,serif" font-size="14.00" fill="#000000">request</text>
</g>
<!-- msg&#45;&gt;request -->
<g id="edge11" class="edge">
<title>msg&#45;&gt;request</title>
<path fill="none" stroke="#000000" d="M491.0515,-1068.4514C504.5792,-1051.6159 523,-1023.527 523,-995.4 523,-995.4 523,-995.4 523,-753 523,-730.4108 512.2896,-707.1104 502.0943,-690.0479"/>
<polygon fill="#000000" stroke="#000000" points="504.8463,-687.8498 496.5545,-681.2545 498.9236,-691.5811 504.8463,-687.8498"/>
<text text-anchor="middle" x="537.3906" y="-878.4" font-family="Times,serif" font-size="14.00" fill="#000000"> poll </text>
</g>
<!-- serving -->
<g id="node7" class="node">
<title>serving</title>
<ellipse fill="none" stroke="#000000" cx="484" cy="-575.4" rx="39.4254" ry="18"/>
<text text-anchor="middle" x="484" y="-571.2" font-family="Times,serif" font-size="14.00" fill="#000000">serving</text>
</g>
<!-- msg&#45;&gt;serving -->
<g id="edge14" class="edge">
<title>msg&#45;&gt;serving</title>
<path fill="none" stroke="#000000" d="M501.1489,-1075.6719C531.5926,-1063.1929 580,-1036.8358 580,-995.4 580,-995.4 580,-995.4 580,-664.2 580,-631.1557 548.9689,-606.9818 522.1917,-592.2732"/>
<polygon fill="#000000" stroke="#000000" points="523.8099,-589.1698 513.3248,-587.6488 520.5729,-595.3764 523.8099,-589.1698"/>
<text text-anchor="middle" x="594.3906" y="-810" font-family="Times,serif" font-size="14.00" fill="#000000"> poll </text>
</g>
<!-- no_request&#45;&gt;served -->
<g id="edge4" class="edge">
<title>no_request&#45;&gt;served</title>
<path fill="none" stroke="#000000" d="M292.8636,-977.4719C302.6652,-962.3568 318.1909,-940.8453 335.6332,-925.8 342.8574,-919.5686 361.2422,-909.2348 378.2774,-900.2364"/>
<polygon fill="#000000" stroke="#000000" points="380.2783,-903.1401 387.523,-895.4093 377.0386,-896.9349 380.2783,-903.1401"/>
<text text-anchor="middle" x="370.1834" y="-946.8" font-family="Times,serif" font-size="14.00" fill="#000000"> !empty&amp;</text>
<text text-anchor="middle" x="370.1834" y="-930" font-family="Times,serif" font-size="14.00" fill="#000000">!iShowData </text>
</g>
<!-- served&#45;&gt;acknowledged -->
<g id="edge6" class="edge">
<title>served&#45;&gt;acknowledged</title>
<path fill="none" stroke="#000000" d="M399.4753,-865.5624C394.2893,-858.0002 388.9661,-848.7143 386.2426,-839.4 380.7859,-820.738 380.536,-798.826 381.6193,-781.7385"/>
<polygon fill="#000000" stroke="#000000" points="385.1473,-781.5431 382.4824,-771.2889 378.1711,-780.9668 385.1473,-781.5431"/>
<text text-anchor="middle" x="424.8787" y="-826.8" font-family="Times,serif" font-size="14.00" fill="#000000"> !empty&amp;</text>
<text text-anchor="middle" x="424.8787" y="-810" font-family="Times,serif" font-size="14.00" fill="#000000">!iShowData&amp;</text>
<text text-anchor="middle" x="424.8787" y="-793.2" font-family="Times,serif" font-size="14.00" fill="#000000">served </text>
</g>
<!-- served&#45;&gt;acknowledged -->
<g id="edge7" class="edge">
<title>served&#45;&gt;acknowledged</title>
<path fill="none" stroke="#000000" d="M387.4566,-869.6909C362.8394,-857.2207 329.2386,-840.1098 328.805,-839.4 317.1281,-820.2843 318.0557,-808.6523 328.805,-789 331.87,-783.3965 336.2206,-778.537 341.1612,-774.3608"/>
<polygon fill="#000000" stroke="#000000" points="343.3387,-777.1038 349.3103,-768.3522 339.1845,-771.4697 343.3387,-777.1038"/>
<text text-anchor="middle" x="352.0975" y="-810" font-family="Times,serif" font-size="14.00" fill="#000000"> !served </text>
</g>
<!-- acknowledged&#45;&gt;no_request -->
<g id="edge9" class="edge">
<title>acknowledged&#45;&gt;no_request</title>
<path fill="none" stroke="#000000" d="M345.042,-767.6646C334.5025,-773.0654 323.8851,-780.1004 316,-789 271.7247,-838.9719 273.5062,-923.6143 278.0281,-967.3599"/>
<polygon fill="#000000" stroke="#000000" points="274.5524,-967.7727 279.1782,-977.3043 281.506,-966.9684 274.5524,-967.7727"/>
<text text-anchor="middle" x="320.8787" y="-895.2" font-family="Times,serif" font-size="14.00" fill="#000000"> empty&amp;</text>
<text text-anchor="middle" x="320.8787" y="-878.4" font-family="Times,serif" font-size="14.00" fill="#000000">!iShowData&amp;</text>
<text text-anchor="middle" x="320.8787" y="-861.6" font-family="Times,serif" font-size="14.00" fill="#000000">!served </text>
</g>
<!-- acknowledged&#45;&gt;request -->
<g id="edge10" class="edge">
<title>acknowledged&#45;&gt;request</title>
<path fill="none" stroke="#000000" d="M404.5592,-735.456C419.9588,-721.643 441.5513,-702.2752 458.3385,-687.2176"/>
<polygon fill="#000000" stroke="#000000" points="461.0381,-689.4978 466.1453,-680.2151 456.3641,-684.2869 461.0381,-689.4978"/>
<text text-anchor="middle" x="467.0975" y="-704.4" font-family="Times,serif" font-size="14.00" fill="#000000"> !served </text>
</g>
<!-- request&#45;&gt;no_request -->
<g id="edge12" class="edge">
<title>request&#45;&gt;no_request</title>
<path fill="none" stroke="#000000" d="M454.6605,-676.2272C449.7666,-678.2263 444.7411,-680.2748 440,-682.2 344.673,-720.9093 281.3412,-697.3366 234.6136,-789 204.1737,-848.7124 241.1164,-928.0466 264.9103,-968.7767"/>
<polygon fill="#000000" stroke="#000000" points="262.0411,-970.7973 270.1931,-977.5645 268.0405,-967.1906 262.0411,-970.7973"/>
<text text-anchor="middle" x="258.6932" y="-818.4" font-family="Times,serif" font-size="14.00" fill="#000000"> empty&amp;</text>
<text text-anchor="middle" x="258.6932" y="-801.6" font-family="Times,serif" font-size="14.00" fill="#000000">!served </text>
</g>
<!-- request&#45;&gt;serving -->
<g id="edge13" class="edge">
<title>request&#45;&gt;serving</title>
<path fill="none" stroke="#000000" d="M484,-645.8006C484,-633.6949 484,-617.6076 484,-603.8674"/>
<polygon fill="#000000" stroke="#000000" points="487.5001,-603.472 484,-593.472 480.5001,-603.4721 487.5001,-603.472"/>
<text text-anchor="middle" x="508.0975" y="-615.6" font-family="Times,serif" font-size="14.00" fill="#000000"> !served </text>
</g>
<!-- serving&#45;&gt;acknowledged -->
<g id="edge15" class="edge">
<title>serving&#45;&gt;acknowledged</title>
<path fill="none" stroke="#000000" d="M456.9136,-588.7406C435.8576,-600.6817 407.9589,-620.2979 394.0042,-646.2 380.976,-670.3823 379.979,-702.1885 381.4699,-724.7849"/>
<polygon fill="#000000" stroke="#000000" points="377.9838,-725.0975 382.3275,-734.7609 384.9581,-724.4979 377.9838,-725.0975"/>
<text text-anchor="middle" x="414.9979" y="-660" font-family="Times,serif" font-size="14.00" fill="#000000"> empty </text>
</g>
<!-- iGetId -->
<g id="node10" class="node">
<title>iGetId</title>
<ellipse fill="none" stroke="#000000" cx="382" cy="-321.2" rx="35.9115" ry="18"/>
<text text-anchor="middle" x="382" y="-317" font-family="Times,serif" font-size="14.00" fill="#000000">iGetId</text>
</g>
<!-- serving&#45;&gt;iGetId -->
<g id="edge16" class="edge">
<title>serving&#45;&gt;iGetId</title>
<path fill="none" stroke="#000000" d="M476.8276,-557.5251C459.2334,-513.6778 413.8491,-400.5729 392.8971,-348.3573"/>
<polygon fill="#000000" stroke="#000000" points="396.1368,-347.0324 389.1645,-339.0551 389.6403,-349.6393 396.1368,-347.0324"/>
<text text-anchor="middle" x="440.4979" y="-415.2" font-family="Times,serif" font-size="14.00" fill="#000000"> getid </text>
</g>
<!-- iGetAll -->
<g id="node11" class="node">
<title>iGetAll</title>
<ellipse fill="none" stroke="#000000" cx="484" cy="-321.2" rx="40.0012" ry="18"/>
<text text-anchor="middle" x="484" y="-317" font-family="Times,serif" font-size="14.00" fill="#000000">iGetAll</text>
</g>
<!-- serving&#45;&gt;iGetAll -->
<g id="edge17" class="edge">
<title>serving&#45;&gt;iGetAll</title>
<path fill="none" stroke="#000000" d="M484,-557.1186C484,-513.3313 484,-402.1872 484,-349.6026"/>
<polygon fill="#000000" stroke="#000000" points="487.5001,-349.3158 484,-339.3158 480.5001,-349.3158 487.5001,-349.3158"/>
<text text-anchor="middle" x="503.0505" y="-415.2" font-family="Times,serif" font-size="14.00" fill="#000000"> getall </text>
</g>
<!-- iGetDbOut -->
<g id="node12" class="node">
<title>iGetDbOut</title>
<ellipse fill="none" stroke="#000000" cx="603" cy="-321.2" rx="53.8905" ry="18"/>
<text text-anchor="middle" x="603" y="-317" font-family="Times,serif" font-size="14.00" fill="#000000">iGetDbOut</text>
</g>
<!-- serving&#45;&gt;iGetDbOut -->
<g id="edge18" class="edge">
<title>serving&#45;&gt;iGetDbOut</title>
<path fill="none" stroke="#000000" d="M492.3678,-557.5251C512.8944,-513.6778 565.8427,-400.5729 590.2867,-348.3573"/>
<polygon fill="#000000" stroke="#000000" points="593.5714,-349.5958 594.6414,-339.0551 587.2317,-346.6279 593.5714,-349.5958"/>
<text text-anchor="middle" x="585.0505" y="-415.2" font-family="Times,serif" font-size="14.00" fill="#000000"> getalldb </text>
</g>
<!-- iGetPath -->
<g id="node13" class="node">
<title>iGetPath</title>
<ellipse fill="none" stroke="#000000" cx="314" cy="-463.8" rx="44.6588" ry="18"/>
<text text-anchor="middle" x="314" y="-459.6" font-family="Times,serif" font-size="14.00" fill="#000000">iGetPath</text>
</g>
<!-- serving&#45;&gt;iGetPath -->
<g id="edge19" class="edge">
<title>serving&#45;&gt;iGetPath</title>
<path fill="none" stroke="#000000" d="M445.0722,-571.7462C418.5059,-567.5638 383.7598,-558.6005 358.8948,-539.4 342.9862,-527.1156 331.5657,-507.4681 324.225,-491.2816"/>
<polygon fill="#000000" stroke="#000000" points="327.3071,-489.5848 320.178,-481.7473 320.8636,-492.3199 327.3071,-489.5848"/>
<text text-anchor="middle" x="373.5526" y="-526.8" font-family="Times,serif" font-size="14.00" fill="#000000"> path </text>
</g>
<!-- iGetUsrSl -->
<g id="node14" class="node">
<title>iGetUsrSl</title>
<ellipse fill="none" stroke="#000000" cx="731" cy="-321.2" rx="49.8117" ry="18"/>
<text text-anchor="middle" x="731" y="-317" font-family="Times,serif" font-size="14.00" fill="#000000">iGetUsrSl</text>
</g>
<!-- serving&#45;&gt;iGetUsrSl -->
<g id="edge20" class="edge">
<title>serving&#45;&gt;iGetUsrSl</title>
<path fill="none" stroke="#000000" d="M500.2064,-558.7212C542.6739,-515.0158 657.3455,-397.0015 707.2544,-345.6377"/>
<polygon fill="#000000" stroke="#000000" points="709.9515,-347.8845 714.4101,-338.2735 704.9311,-343.0064 709.9515,-347.8845"/>
<text text-anchor="middle" x="666.2728" y="-415.2" font-family="Times,serif" font-size="14.00" fill="#000000"> getusrsl </text>
</g>
<!-- instrustate -->
<g id="node8" class="node">
<title>instrustate</title>
<ellipse fill="none" stroke="#000000" cx="75" cy="-575.4" rx="50.9561" ry="18"/>
<text text-anchor="middle" x="75" y="-571.2" font-family="Times,serif" font-size="14.00" fill="#000000">instrustate</text>
</g>
<!-- iUndefined -->
<g id="node9" class="node">
<title>iUndefined</title>
<ellipse fill="none" stroke="#000000" cx="75" cy="-463.8" rx="54.4546" ry="18"/>
<text text-anchor="middle" x="75" y="-459.6" font-family="Times,serif" font-size="14.00" fill="#000000">iUndefined</text>
</g>
<!-- instrustate&#45;&gt;iUndefined -->
<g id="edge3" class="edge">
<title>instrustate&#45;&gt;iUndefined</title>
<path fill="none" stroke="#000000" d="M75,-556.9715C75,-539.339 75,-512.4924 75,-492.1391"/>
<polygon fill="#000000" stroke="#000000" points="78.5001,-491.8855 75,-481.8856 71.5001,-491.8856 78.5001,-491.8855"/>
<text text-anchor="middle" x="109.9881" y="-526.8" font-family="Times,serif" font-size="14.00" fill="#000000"> constructor </text>
</g>
<!-- iNoWindow -->
<g id="node15" class="node">
<title>iNoWindow</title>
<ellipse fill="none" stroke="#000000" cx="75" cy="-321.2" rx="58.5521" ry="18"/>
<text text-anchor="middle" x="75" y="-317" font-family="Times,serif" font-size="14.00" fill="#000000">iNoWindow</text>
</g>
<!-- iUndefined&#45;&gt;iNoWindow -->
<g id="edge21" class="edge">
<title>iUndefined&#45;&gt;iNoWindow</title>
<path fill="none" stroke="#000000" d="M75,-445.7396C75,-421.5501 75,-378.366 75,-349.7488"/>
<polygon fill="#000000" stroke="#000000" points="78.5001,-349.5641 75,-339.5642 71.5001,-349.5642 78.5001,-349.5641"/>
<text text-anchor="middle" x="118.5344" y="-380.4" font-family="Times,serif" font-size="14.00" fill="#000000"> newWebView </text>
</g>
<!-- iNoRequest -->
<g id="node18" class="node">
<title>iNoRequest</title>
<ellipse fill="none" stroke="#000000" cx="421" cy="-160.8" rx="56.76" ry="18"/>
<text text-anchor="middle" x="421" y="-156.6" font-family="Times,serif" font-size="14.00" fill="#000000">iNoRequest</text>
</g>
<!-- iGetId&#45;&gt;iNoRequest -->
<g id="edge24" class="edge">
<title>iGetId&#45;&gt;iNoRequest</title>
<path fill="none" stroke="#000000" d="M375.5077,-303.3907C368.728,-281.8925 360.5137,-244.9919 371.6846,-215.8 376.0805,-204.3125 384.1042,-193.7129 392.4204,-184.9482"/>
<polygon fill="#000000" stroke="#000000" points="395.0625,-187.2583 399.7202,-177.7421 390.1447,-182.2766 395.0625,-187.2583"/>
<text text-anchor="middle" x="416.1577" y="-253.6" font-family="Times,serif" font-size="14.00" fill="#000000"> empty&amp;</text>
<text text-anchor="middle" x="416.1577" y="-236.8" font-family="Times,serif" font-size="14.00" fill="#000000">served=empty&amp;</text>
<text text-anchor="middle" x="416.1577" y="-220" font-family="Times,serif" font-size="14.00" fill="#000000">!iShowData </text>
</g>
<!-- iGetAll&#45;&gt;iNoRequest -->
<g id="edge25" class="edge">
<title>iGetAll&#45;&gt;iNoRequest</title>
<path fill="none" stroke="#000000" d="M482.5994,-302.9349C480.4055,-281.312 474.9733,-244.6044 462,-215.8 457.33,-205.4312 450.4398,-195.1457 443.6353,-186.3239"/>
<polygon fill="#000000" stroke="#000000" points="446.2147,-183.9468 437.213,-178.3594 440.7656,-188.3408 446.2147,-183.9468"/>
<text text-anchor="middle" x="522.1577" y="-253.6" font-family="Times,serif" font-size="14.00" fill="#000000"> empty&amp;</text>
<text text-anchor="middle" x="522.1577" y="-236.8" font-family="Times,serif" font-size="14.00" fill="#000000">served=empty&amp;</text>
<text text-anchor="middle" x="522.1577" y="-220" font-family="Times,serif" font-size="14.00" fill="#000000">!iShowData </text>
</g>
<!-- iGetDbOut&#45;&gt;iNoRequest -->
<g id="edge29" class="edge">
<title>iGetDbOut&#45;&gt;iNoRequest</title>
<path fill="none" stroke="#000000" d="M602.2877,-303.1301C600.4231,-279.9864 593.8525,-239.9861 571,-215.8 548.0663,-191.5281 513.529,-177.9214 483.374,-170.3167"/>
<polygon fill="#000000" stroke="#000000" points="483.8738,-166.8389 473.3385,-167.9611 482.2741,-173.6537 483.8738,-166.8389"/>
<text text-anchor="middle" x="641.1577" y="-253.6" font-family="Times,serif" font-size="14.00" fill="#000000"> empty&amp;</text>
<text text-anchor="middle" x="641.1577" y="-236.8" font-family="Times,serif" font-size="14.00" fill="#000000">served=empty&amp;</text>
<text text-anchor="middle" x="641.1577" y="-220" font-family="Times,serif" font-size="14.00" fill="#000000">!iShowData </text>
</g>
<!-- iShowData -->
<g id="node19" class="node">
<title>iShowData</title>
<ellipse fill="none" stroke="#000000" cx="267" cy="-321.2" rx="53.8905" ry="18"/>
<text text-anchor="middle" x="267" y="-317" font-family="Times,serif" font-size="14.00" fill="#000000">iShowData</text>
</g>
<!-- iGetPath&#45;&gt;iShowData -->
<g id="edge26" class="edge">
<title>iGetPath&#45;&gt;iShowData</title>
<path fill="none" stroke="#000000" d="M308.0474,-445.7396C299.9956,-421.31 285.5584,-377.507 276.1301,-348.9011"/>
<polygon fill="#000000" stroke="#000000" points="279.3587,-347.5156 272.9043,-339.1137 272.7105,-349.7068 279.3587,-347.5156"/>
<text text-anchor="middle" x="323.4348" y="-380.4" font-family="Times,serif" font-size="14.00" fill="#000000"> subscribed </text>
</g>
<!-- iGetUsrSl&#45;&gt;iNoRequest -->
<g id="edge30" class="edge">
<title>iGetUsrSl&#45;&gt;iNoRequest</title>
<path fill="none" stroke="#000000" d="M729.1715,-302.8757C725.7792,-279.0734 716.2635,-237.955 690,-215.8 659.657,-190.2037 554.9283,-174.6325 485.4518,-166.8764"/>
<polygon fill="#000000" stroke="#000000" points="485.7903,-163.3926 475.47,-165.7885 485.0319,-170.3514 485.7903,-163.3926"/>
<text text-anchor="middle" x="765.1577" y="-253.6" font-family="Times,serif" font-size="14.00" fill="#000000"> empty&amp;</text>
<text text-anchor="middle" x="765.1577" y="-236.8" font-family="Times,serif" font-size="14.00" fill="#000000">served=empty&amp;</text>
<text text-anchor="middle" x="765.1577" y="-220" font-family="Times,serif" font-size="14.00" fill="#000000">!iShowData </text>
</g>
<!-- iWindow -->
<g id="node16" class="node">
<title>iWindow</title>
<ellipse fill="none" stroke="#000000" cx="77" cy="-160.8" rx="46.9516" ry="18"/>
<text text-anchor="middle" x="77" y="-156.6" font-family="Times,serif" font-size="14.00" fill="#000000">iWindow</text>
</g>
<!-- iNoWindow&#45;&gt;iWindow -->
<g id="edge22" class="edge">
<title>iNoWindow&#45;&gt;iWindow</title>
<path fill="none" stroke="#000000" d="M63.6294,-303.1423C57.772,-292.7658 51.2421,-279.2384 48.2384,-266.2 43.2097,-244.3718 42.894,-237.5531 48.2384,-215.8 50.6551,-205.9636 55.1748,-195.9354 59.9274,-187.1824"/>
<polygon fill="#000000" stroke="#000000" points="63.1137,-188.6638 65.0873,-178.2544 57.0531,-185.161 63.1137,-188.6638"/>
<text text-anchor="middle" x="84.3808" y="-236.8" font-family="Times,serif" font-size="14.00" fill="#000000"> loadHTML </text>
</g>
<!-- iWindowLoaded -->
<g id="node17" class="node">
<title>iWindowLoaded</title>
<ellipse fill="none" stroke="#000000" cx="92" cy="-34" rx="75.8682" ry="18"/>
<text text-anchor="middle" x="92" y="-29.8" font-family="Times,serif" font-size="14.00" fill="#000000">iWindowLoaded</text>
</g>
<!-- iWindow&#45;&gt;iWindowLoaded -->
<g id="edge23" class="edge">
<title>iWindow&#45;&gt;iWindowLoaded</title>
<path fill="none" stroke="#000000" d="M79.1491,-142.6327C81.6331,-121.6352 85.7509,-86.8261 88.6547,-62.279"/>
<polygon fill="#000000" stroke="#000000" points="92.1558,-62.4756 89.8549,-52.1336 85.2042,-61.6532 92.1558,-62.4756"/>
<text text-anchor="middle" x="121.3808" y="-93.2" font-family="Times,serif" font-size="14.00" fill="#000000"> !panelBusy </text>
</g>
<!-- iShowData&#45;&gt;iNoRequest -->
<g id="edge27" class="edge">
<title>iShowData&#45;&gt;iNoRequest</title>
<path fill="none" stroke="#000000" d="M221.5874,-311.2924C197.2526,-303.4221 169.3354,-289.6875 154.6846,-266.2 142.8294,-247.1943 140.5376,-233.1673 154.6846,-215.8 179.4803,-185.3602 284.4675,-171.2579 354.9811,-165.1131"/>
<polygon fill="#000000" stroke="#000000" points="355.4482,-168.5863 365.1209,-164.2632 354.8635,-161.6108 355.4482,-168.5863"/>
<text text-anchor="middle" x="200.1577" y="-253.6" font-family="Times,serif" font-size="14.00" fill="#000000"> empty&amp;</text>
<text text-anchor="middle" x="200.1577" y="-236.8" font-family="Times,serif" font-size="14.00" fill="#000000">served=empty&amp;</text>
<text text-anchor="middle" x="200.1577" y="-220" font-family="Times,serif" font-size="14.00" fill="#000000">!iShowData </text>
</g>
<!-- iShowData&#45;&gt;iNoRequest -->
<g id="edge28" class="edge">
<title>iShowData&#45;&gt;iNoRequest</title>
<path fill="none" stroke="#000000" d="M269.6294,-303.0153C273.8009,-280.1151 283.9389,-240.7539 306.7924,-215.8 323.3651,-197.7042 347.1667,-184.938 368.7563,-176.2916"/>
<polygon fill="#000000" stroke="#000000" points="370.0583,-179.5411 378.1651,-172.7198 367.5738,-172.9968 370.0583,-179.5411"/>
<text text-anchor="middle" x="333.6038" y="-236.8" font-family="Times,serif" font-size="14.00" fill="#000000"> closeEvt </text>
</g>
</g>
</svg>
